<svg width="0" height="0" class="hidden">
  <!-- search -->
  <symbol fill="none" xmlns="http://www.w3.org/2000/svg" viewBox="0 0 24 24" id="search">
    <path fill-rule="evenodd" clip-rule="evenodd" d="M10.5 19a8.5 8.5 0 116.676-3.238l4.531 4.53a1 1 0 01-1.414 1.415l-4.531-4.531A8.463 8.463 0 0110.5 19zm4.66-3.968a1.01 1.01 0 00-.128.128 6.5 6.5 0 11.128-.128z" fill="currentColor"></path>
    <mask id="a" maskUnits="userSpaceOnUse" x="2" y="2" width="20" height="20">
      <path fill-rule="evenodd" clip-rule="evenodd" d="M10.5 19a8.5 8.5 0 116.676-3.238l4.531 4.53a1 1 0 01-1.414 1.415l-4.531-4.531A8.463 8.463 0 0110.5 19zm4.66-3.968a1.01 1.01 0 00-.128.128 6.5 6.5 0 11.128-.128z" fill="currentColor"></path>
    </mask>
    <g mask="url(#a)">
      <path d="M0 0h24v24H0z"></path>
    </g>
  </symbol>
  <!-- chevron right -->
  <symbol fill="none" xmlns="http://www.w3.org/2000/svg" viewBox="0 0 24 24" id="chevron-right">
    <path d="M13.586 12l-5.293 5.293a1 1 0 101.414 1.414l6-6a1 1 0 000-1.414l-6-6a1 1 0 00-1.414 1.414L13.586 12z" fill="currentColor"></path>
    <mask id="a" maskUnits="userSpaceOnUse" x="8" y="5" width="8" height="14">
      <path d="M13.586 12l-5.293 5.293a1 1 0 101.414 1.414l6-6a1 1 0 000-1.414l-6-6a1 1 0 00-1.414 1.414L13.586 12z" fill="currentColor"></path>
    </mask>
    <g mask="url(#a)">
      <path d="M0 0h24v24H0z"></path>
    </g>
  </symbol>
  <!-- chevron up -->
   <symbol fill="none" xmlns="http://www.w3.org/2000/svg" viewBox="0 0 24 24" id="chevron-up">
    <path d="M12 10.414l5.293 5.293a1 1 0 001.414-1.414l-6-6a1 1 0 00-1.414 0l-6 6a1 1 0 101.414 1.414L12 10.414z" fill="currentColor"></path>
    <mask id="a" maskUnits="userSpaceOnUse" x="5" y="8" width="14" height="8">
      <path d="M12 10.414l5.293 5.293a1 1 0 001.414-1.414l-6-6a1 1 0 00-1.414 0l-6 6a1 1 0 101.414 1.414L12 10.414z" fill="#fff"></path>
    </mask>
    <g mask="url(#a)">
      <path d="M0 0h24v24H0z"></path>
    </g>
  </symbol>
  <!-- star -->
  <symbol fill="none" xmlns="http://www.w3.org/2000/svg" viewBox="0 0 14 14" id="star">
    <path fill-rule="evenodd" clip-rule="evenodd" d="M6.478.908L4.81 4.285l-3.728.545a.583.583 0 00-.323.995l2.697 2.627-.636 3.711a.583.583 0 00.846.615L7 11.025l3.333 1.753a.583.583 0 00.847-.615l-.637-3.71 2.697-2.628a.583.583 0 00-.323-.995L9.19 4.285 7.524.908a.583.583 0 00-1.046 0zM5.282 5.396a.583.583 0 00.44-.32L7 2.486l1.28 2.592a.583.583 0 00.438.319l2.862.418L9.51 7.83a.583.583 0 00-.169.517l.489 2.848L7.272 9.85a.583.583 0 00-.543 0L4.17 11.195l.489-2.848a.583.583 0 00-.168-.517l-2.07-2.016 2.861-.418z" fill="currentColor"></path>
    <mask id="a" maskUnits="userSpaceOnUse" x="0" y="0" width="14" height="13">
      <path fill-rule="evenodd" clip-rule="evenodd" d="M6.478.908L4.81 4.285l-3.728.545a.583.583 0 00-.323.995l2.697 2.627-.636 3.711a.583.583 0 00.846.615L7 11.025l3.333 1.753a.583.583 0 00.847-.615l-.637-3.71 2.697-2.628a.583.583 0 00-.323-.995L9.19 4.285 7.524.908a.583.583 0 00-1.046 0zM5.282 5.396a.583.583 0 00.44-.32L7 2.486l1.28 2.592a.583.583 0 00.438.319l2.862.418L9.51 7.83a.583.583 0 00-.169.517l.489 2.848L7.272 9.85a.583.583 0 00-.543 0L4.17 11.195l.489-2.848a.583.583 0 00-.168-.517l-2.07-2.016 2.861-.418z" fill="#fff"></path>
    </mask>
    <g mask="url(#a)">
      <path d="M0 0h14v14H0z"></path>
    </g>
  </symbol>
  <!-- check -->
  <symbol fill="none" xmlns="http://www.w3.org/2000/svg" viewBox="0 0 24 24" id="check-big">
    <path d="M4.707 12.293a1 1 0 00-1.414 1.414l5 5a1 1 0 001.414 0l11-11a1 1 0 00-1.414-1.414L9 16.586l-4.293-4.293z" fill="currentColor"></path>
    <mask id="a" maskUnits="userSpaceOnUse" x="3" y="6" width="18" height="13">
      <path d="M4.707 12.293a1 1 0 00-1.414 1.414l5 5a1 1 0 001.414 0l11-11a1 1 0 00-1.414-1.414L9 16.586l-4.293-4.293z" fill="#fff"></path>
    </mask>
    <g mask="url(#a)">
      <path d="M0 0h24v24H0z"></path>
    </g>
  </symbol>
  <!-- left chevron -->
  <symbol id="chevron-left" viewBox="0 0 15.181 23.395" xmlns="http://www.w3.org/2000/svg">
    <g data-name="Group 484">
    <g data-name="Group 483">
    <g data-name="Backward arrow small">
    <path data-name="Path 36-2" d="M0 11.697l11.7-11.7 3.484 3.484-8.218 8.216 8.213 8.213-3.484 3.485z" fill="currentColor"/>
    </g>
    </g>
    </g>
  </symbol>
  <!-- right chevron -->
  <symbol id="chevron-right" viewBox="0 0 15.181 23.395" xmlns="http://www.w3.org/2000/svg">
    <g data-name="Group 484">
    <g data-name="Group 483">
    <g data-name="Backward arrow small">
    <path data-name="Path 36-2" d="M15.181 11.698l-11.7 11.7-3.484-3.484 8.218-8.216L.002 3.485 3.486 0z" fill="#fff"/>
    </g>
    </g>
    </g>
  </symbol>
  <!-- user -->
  <symbol id="user" viewBox="0 0 12.692 12.691" xmlns="http://www.w3.org/2000/svg">
    <g data-name="Group 476">
    <path data-name="Union 1" d="M-.004 12.691v-1.587c0-1.745 2.856-3.172 6.346-3.172s6.346 1.427 6.346 3.172v1.587zm3.173-9.519a3.173 3.173 0 1 1 3.173 3.173 3.173 3.173 0 0 1-3.169-3.173z" fill="currentColor"/>
    </g>
  </symbol>
  <!-- falcon -->
  <symbol id="falcon" viewBox="0 0 24.438 22.419" xmlns="http://www.w3.org/2000/svg">
    <g data-name="Group 452">
    <g data-name="Group 451">
    <g data-name="Group 450" fill="currentcolor">
    <path data-name="Path 407" d="M11.024 19.369c-1.511-.49-2.883-.913-2.356-1.578S24.423 0 24.423 0l.013 8.6-8.938 6.577 8.937-5.182v1.87l-2.281 2.59-7.375 1.963 6.086-.5-2.021 2.309-4.423-.865 3.675 1.677-1.273 1.469-3.036-2.4 2.493 3.009-1.149 1.3s-.889-2.003-4.107-3.048z"/>
    <path data-name="Path 408" d="M7.735 17.148c.333-.308 1.119-1.038 1.032-1.124C8.741 15.997 0 8.295 0 8.295v3.123l5.089 3.5-5.084-2.333v1.923l.3.26 5.193.851-4.443-.193 1.878 1.656 2.767-.929-2.231 1.45 4.029.759a.9.9 0 0 1 .237-1.214z"/>
    </g>
    </g>
    </g>
  </symbol>
  <!-- insta -->
  <symbol id="insta" viewBox="0 0 17.824 17.824" xmlns="http://www.w3.org/2000/svg">
    <path data-name="Path 3" d="M8.912 1.6a27.113 27.113 0 0 1 3.557.1 4.586 4.586 0 0 1 1.68.3 3.473 3.473 0 0 1 1.68 1.68 4.587 4.587 0 0 1 .3 1.68c0 .889.1 1.186.1 3.557a27.242 27.242 0 0 1-.1 3.557 4.589 4.589 0 0 1-.3 1.68 3.472 3.472 0 0 1-1.68 1.68 4.577 4.577 0 0 1-1.68.3c-.889 0-1.186.1-3.557.1a27.2 27.2 0 0 1-3.557-.1 4.58 4.58 0 0 1-1.68-.3 3.472 3.472 0 0 1-1.68-1.68 4.589 4.589 0 0 1-.3-1.68c0-.889-.1-1.186-.1-3.557a27.094 27.094 0 0 1 .1-3.557 4.586 4.586 0 0 1 .3-1.68 3.563 3.563 0 0 1 .692-.988A1.666 1.666 0 0 1 3.675 2a4.589 4.589 0 0 1 1.68-.3 27.113 27.113 0 0 1 3.557-.1m0-1.581a29 29 0 0 0-3.656.1 6.1 6.1 0 0 0-2.173.394A4.156 4.156 0 0 0 .512 3.084a4.512 4.512 0 0 0-.394 2.173 67.557 67.557 0 0 0 0 7.312 6.075 6.075 0 0 0 .4 2.175 4.149 4.149 0 0 0 2.569 2.569 6.086 6.086 0 0 0 2.174.4 67.79 67.79 0 0 0 7.311 0 6.1 6.1 0 0 0 2.175-.4 4.147 4.147 0 0 0 2.569-2.569 6.1 6.1 0 0 0 .4-2.175c0-.987.1-1.284.1-3.655a28.954 28.954 0 0 0-.1-3.656 6.1 6.1 0 0 0-.395-2.175A4.156 4.156 0 0 0 14.752.514 6.11 6.11 0 0 0 12.578.12a29 29 0 0 0-3.656-.1m0 4.348a4.472 4.472 0 0 0-4.545 4.4v.148a4.546 4.546 0 1 0 4.545-4.545m0 7.51a2.912 2.912 0 0 1-2.965-2.857v-.108a2.912 2.912 0 0 1 2.857-2.965h.108a2.912 2.912 0 0 1 2.965 2.857v.108a2.912 2.912 0 0 1-2.857 2.965h-.108m4.743-8.794a1.087 1.087 0 1 0 1.088 1.087 1.1 1.1 0 0 0-1.088-1.087" fill="currentColor" fill-rule="evenodd"/>
  </symbol>
  <!-- facebook -->
  <symbol id="facebook" viewBox="0 0 9.494 18.19" xmlns="http://www.w3.org/2000/svg">
    <path data-name="Path 1" d="M6.161 18.191V9.908H8.99l.4-3.232H6.157V4.655c0-.909.3-1.616 1.616-1.616H9.49V.11c-.4 0-1.413-.1-2.525-.1a3.9 3.9 0 0 0-4.141 4.242v2.425H-.004v3.232h2.828v8.283z" fill="currentColor" fill-rule="evenodd"/>
  </symbol>
  <!-- linkedin -->
  <symbol id="linkedin" viewBox="0 0 17.698 17.684" xmlns="http://www.w3.org/2000/svg">
    <path data-name="Path 409" d="M17.696 8.856c0 2.375.006 4.75 0 7.125a1.6 1.6 0 0 1-.858 1.507 1.708 1.708 0 0 1-.811.189q-7.174.011-14.349 0a1.528 1.528 0 0 1-1.484-.885 1.948 1.948 0 0 1-.181-.8q-.016-7.155 0-14.309A1.581 1.581 0 0 1 .871.191a1.706 1.706 0 0 1 .81-.189q7.175-.01 14.349 0a1.571 1.571 0 0 1 1.491.882 1.8 1.8 0 0 1 .179.828q.001 3.574-.004 7.144zM9.73 7.509v-.527a.46.46 0 0 0-.5-.5c-.639 0-1.278.014-1.917-.006a.527.527 0 0 0-.56.568q.009 4.077 0 8.156a.513.513 0 0 0 .569.579h1.859a.5.5 0 0 0 .549-.561v-4.194a2.661 2.661 0 0 1 .086-.7 3.256 3.256 0 0 1 .333-.811 1.309 1.309 0 0 1 1.266-.609 1.283 1.283 0 0 1 1.272.971 3.534 3.534 0 0 1 .154 1.056v4.3a.482.482 0 0 0 .548.553h1.917a.5.5 0 0 0 .564-.563c-.012-1.741-.021-3.482-.049-5.222a4.75 4.75 0 0 0-.489-2.07 2.672 2.672 0 0 0-1.548-1.383 4.252 4.252 0 0 0-1.746-.19 2.967 2.967 0 0 0-1.618.526 9.161 9.161 0 0 0-.69.627zm-7.2 3.6v4.1a.49.49 0 0 0 .516.553 46.04 46.04 0 0 0 1.931 0 .5.5 0 0 0 .52-.514c.005-.053 0-.107 0-.16V7.139a1.7 1.7 0 0 0-.009-.2.483.483 0 0 0-.526-.465H3.089c-.387 0-.563.178-.563.57zM2.1 3.818a1.91 1.91 0 1 0 1.9-1.9 1.926 1.926 0 0 0-1.896 1.901z" fill="currentColor"/>
  </symbol>
  <!-- bulb -->
  <symbol id="bulb" viewBox="0 0 41.196 43.13" xmlns="http://www.w3.org/2000/svg">
    <path data-name="Path 296" d="M20.599 9.04a11.557 11.557 0 0 1 7.354 20.476v3.133a2.394 2.394 0 0 1-.7 1.692 2.447 2.447 0 0 1-.8.529v3.959a2.391 2.391 0 0 1-2.392 2.394h-.918v1.508a.4.4 0 0 1-.4.4h-4.289a.4.4 0 0 1-.4-.4v-1.508h-.917a2.39 2.39 0 0 1-1.689-.7 2.386 2.386 0 0 1-.7-1.686v-3.959a2.429 2.429 0 0 1-.8-.529h-.005a2.39 2.39 0 0 1-.7-1.684v-3.133a11.558 11.558 0 0 1 7.355-20.476zM9.88 9.316L6.596 6.034a.4.4 0 0 0-.562.561L9.315 9.88a.4.4 0 0 0 .565-.564zm22 .564l3.285-3.285a.4.4 0 0 0-.565-.561l-3.283 3.282a.4.4 0 0 0 .563.564zM5.04 20.2a.4.4 0 0 1 0 .8H.397a.4.4 0 0 1 0-.8zm31.116.8a.4.4 0 1 1 0-.8h4.642a.4.4 0 0 1 0 .8zM20.997 5.042a.4.4 0 0 1-.8 0V.399a.4.4 0 0 1 .8 0v4.643zm-5.455 32.344h10.11v-2.343h-10.11v2.343zm10.11.8h-10.11v.647a1.6 1.6 0 0 0 .468 1.129 1.578 1.578 0 0 0 1.126.467h6.92a1.6 1.6 0 0 0 1.594-1.6v-.647zm-1.96-13.127v-2.094h-2.694v2.072a.4.4 0 1 1-.8 0v-2.072h-2.7v11.284h6.189v-9.19zm0-2.892v-2.072a.4.4 0 0 1 .8 0v14.154h1.068a1.6 1.6 0 0 0 1.6-1.6v-3.322a.4.4 0 0 1 .152-.312A10.769 10.769 0 1 0 13.878 29a.4.4 0 0 1 .169.327v3.322a1.59 1.59 0 0 0 .467 1.127 1.59 1.59 0 0 0 1.127.466h1.069V20.088a.4.4 0 0 1 .8 0v2.072h2.7v-2.072a.4.4 0 0 1 .8 0v2.072zm-1.347 19.06h-3.492v1.109h3.492z" fill="currentColor" fill-rule="evenodd"/>
  </symbol>
  <!-- rulers -->
  <symbol id="rulers" viewBox="0 0 47.022 47.088" xmlns="http://www.w3.org/2000/svg">
    <path data-name="Path 297" d="M33.284 0h7.613a2.76 2.76 0 0 1 2.753 2.754v27.777h.618a2.755 2.755 0 0 1 2.754 2.753v7.614a2.748 2.748 0 0 1-.808 1.943 2.753 2.753 0 0 1-1.944.808h-.624v.683a2.742 2.742 0 0 1-.808 1.947 2.741 2.741 0 0 1-1.943.807h-7.613a2.759 2.759 0 0 1-2.754-2.754v-.683H2.751a2.759 2.759 0 0 1-2.753-2.753v-7.614a2.739 2.739 0 0 1 .808-1.943 2.743 2.743 0 0 1 1.938-.8h27.777V2.754A2.747 2.747 0 0 1 31.33.809V.802a2.755 2.755 0 0 1 1.94-.8zm-1.835 4.61h3.5a.459.459 0 0 1 0 .917h-3.5v8.3h3.5a.459.459 0 0 1 0 .918h-3.5v8.3h3.5a.459.459 0 0 1 0 .918h-3.5v6.562h11.283V2.754A1.838 1.838 0 0 0 40.897.917h-7.613a1.82 1.82 0 0 0-1.3.538 1.831 1.831 0 0 0-.536 1.3v1.856zm10.962 26.837v3.5a.459.459 0 0 1-.918 0v-3.5h-8.3v3.5a.459.459 0 0 1-.917 0v-3.5h-8.3v3.5a.458.458 0 0 1-.916 0v-3.5h-8.3v3.5a.459.459 0 0 1-.918 0v-3.5h-8.3v3.5a.46.46 0 0 1-.919 0v-3.5H2.767a1.836 1.836 0 0 0-1.3.538 1.824 1.824 0 0 0-.54 1.3v7.614a1.842 1.842 0 0 0 1.837 1.834h41.515a1.836 1.836 0 0 0 1.3-.536 1.827 1.827 0 0 0 .538-1.295v-7.614a1.842 1.842 0 0 0-1.836-1.837h-1.857zm-9.127 14.724h7.613a1.835 1.835 0 0 0 1.3-.538 1.844 1.844 0 0 0 .536-1.3v-.683H31.446v.683a1.839 1.839 0 0 0 1.835 1.837z" fill="currentColor" fill-rule="evenodd"/>
  </symbol>
  <!-- tools -->
  <symbol id="tools" viewBox="0 0 35.291 34.301" xmlns="http://www.w3.org/2000/svg">
    <g data-name="Group 223">
      <path data-name="Path 298" d="M11.982 15.503l-4.709-4.709-1.729.074a.452.452 0 0 1-.375-.17L.101 4.469a.46.46 0 0 1 .037-.617l2.717-2.715a.456.456 0 0 1 .614-.028l6.225 5.072a.459.459 0 0 1 .17.375l-.078 1.727 4.705 4.71 2.647-2.647a9.117 9.117 0 0 1 12.3-9.743.456.456 0 0 1 .265.591.446.446 0 0 1-.1.161l-5.3 5.3 1.012 3.325 3.323 1.012 5.3-5.3a.46.46 0 0 1 .65 0 .446.446 0 0 1 .109.179 9.118 9.118 0 0 1-9.872 12.263l7.659 7.66.025.027a2.755 2.755 0 0 1-.025 3.867l-.422.422-.007.009-3.378 3.377a2.755 2.755 0 0 1-3.892 0l-7.646-7.648-7.533 7.625a2.715 2.715 0 0 1-.891.611l-.018.009a2.777 2.777 0 0 1-1.041.2 2.734 2.734 0 0 1-1.059-.2 2.7 2.7 0 0 1-.9-.6l-3.9-3.9a2.753 2.753 0 0 1 0-3.891l10.188-10.188zm7.851 7.612l8.94 8.981 2.306-2.3-8.953-8.995-2.293 2.318zm8.294 9.631l-8.936-8.98-1.412 1.431 7.649 7.649a1.844 1.844 0 0 0 2.6 0l.1-.1zm-9.369-9.842a.449.449 0 0 1 .091-.13l2.951-2.952 2.015-2.038.009-.009.5-.506a.457.457 0 0 1 .614-.054l.019.015a8.258 8.258 0 0 0 3.737-.307 8.2 8.2 0 0 0 5.364-10.057l-4.967 4.967a.459.459 0 0 1-.455.114l-3.823-1.165a.464.464 0 0 1-.305-.3l-1.151-3.783a.458.458 0 0 1 .1-.5l4.967-4.967a8.259 8.259 0 0 0-3.969-.133 8.221 8.221 0 0 0-6.089 5.5 8.253 8.253 0 0 0-.294 3.814q.006.03.009.06a.457.457 0 0 1-.156.392l-3.108 3.108-1.864 1.864L2.442 26.346a1.84 1.84 0 0 0 0 2.6l3.9 3.9a1.854 1.854 0 0 0 1.989.409l.022-.009a1.828 1.828 0 0 0 .592-.407l7.836-7.93.025-.025.018-.018 1.932-1.954zm4.011-2.759l8.957 9 .107-.107a1.821 1.821 0 0 0 .534-1.3 1.84 1.84 0 0 0-.512-1.276l-.022-.022-7.69-7.689-1.374 1.391zM5.158 27.153l2.979 2.978 2.978-2.978-2.978-2.979-2.979 2.979zm2.654 3.953a.46.46 0 0 0 .65 0l3.628-3.629a.457.457 0 0 0 0-.647l-3.628-3.629a.459.459 0 0 0-.65 0L4.184 26.83a.457.457 0 0 0 0 .647l3.628 3.629zm-.034-21.1l4.85 4.851 1.217-1.216-4.851-4.855a.474.474 0 0 1-.134-.341l.078-1.7L3.21 2.074 1.072 4.21l4.664 5.733 1.7-.074a.453.453 0 0 1 .346.136zm-4.312-8.9z" fill="currentColor" fill-rule="evenodd"/>
    </g>
  </symbol>
  <!-- pencil -->
  <symbol id="pencil" viewBox="0 0 14.598 43.342" xmlns="http://www.w3.org/2000/svg">
    <path data-name="Path 299" d="M3.919 32.079V.917H2.754a1.828 1.828 0 0 0-1.295.537 1.826 1.826 0 0 0-.537 1.3v28.268l3 1.058zM4.835.917v31.127l4.864-1.984.063-.026V.917zm5.846 0v29.07h.022l2.971.763.007-28A1.837 1.837 0 0 0 11.847.912h-1.164zm3.908 30.343a.439.439 0 0 1-.094.371L8.715 42.49a1.584 1.584 0 0 1-.587.626 1.611 1.611 0 0 1-.828.224 1.58 1.58 0 0 1-1.416-.852L.069 31.582a.464.464 0 0 1-.067-.24V2.751A2.749 2.749 0 0 1 .811.808h.006a2.746 2.746 0 0 1 1.938-.8h9.091a2.76 2.76 0 0 1 2.753 2.753l-.007 28.507zm-1.133.38l-3.071 5.77-2.367-.969a.462.462 0 0 0-.478.081L5.728 38.13l-1.4-.5-2.914-5.464 2.4.847a1.632 1.632 0 0 0 .571.093 1.6 1.6 0 0 0 .567-.122l5.087-2.077a.725.725 0 0 1 .215-.054.79.79 0 0 1 .22.022l2.979.763zm-8.485 7.194l1.719 3.227a.654.654 0 0 0 .61.363.709.709 0 0 0 .359-.095.688.688 0 0 0 .249-.273l2.044-3.837-2.019-.827-1.773 1.573a.46.46 0 0 1-.488.116z" fill="currentColor" fill-rule="evenodd"/>
  </symbol>
  <!-- download -->
  <symbol id="download" viewBox="0 0 17.318 21.09" xmlns="http://www.w3.org/2000/svg">
    <g data-name="Group 566" fill="currentColor">
    <path data-name="Path 433" d="M0 21.09v-2.483h17.318v2.483z"/>
    <path data-name="Path 434" d="M.066 7.425h4.867V0h7.442v7.423h4.871l-8.591 8.6z"/>
    </g>
  </symbol>
  <!-- pin -->
  <symbol id="pin" viewBox="0 0 17.3 24.389" xmlns="http://www.w3.org/2000/svg">
    <g data-name="Group 687" fill="currentColor">
    <path data-name="Path 492" d="M8.653 24.389a69.2 69.2 0 0 1-4.529-6.011 31.941 31.941 0 0 1-3.366-6.226 9.936 9.936 0 0 1-.757-3.767A8.652 8.652 0 0 1 17.134 6.95a8.532 8.532 0 0 1-.4 4.662 30.485 30.485 0 0 1-3.485 6.668 63.935 63.935 0 0 1-4.495 5.979 6.546 6.546 0 0 1-.101.13zm0-1.945c.078-.089.152-.164.215-.247 1-1.347 2.029-2.673 2.987-4.049a31.2 31.2 0 0 0 3.471-6.206 8.035 8.035 0 0 0 .667-4.563 7.191 7.191 0 0 0-4.854-5.787 7.421 7.421 0 0 0-9.854 7.933 12.432 12.432 0 0 0 1.343 3.881 51.1 51.1 0 0 0 5.918 8.94 1.159 1.159 0 0 0 .109.102z"/>
    <path data-name="Path 493" d="M8.65 5.368a3.291 3.291 0 1 1-3.285 3.284A3.293 3.293 0 0 1 8.65 5.368zM6.573 8.631A2.076 2.076 0 1 0 8.654 6.57a2.1 2.1 0 0 0-2.081 2.061z"/>
    </g>
  </symbol>
  <!-- indicator -->
  <symbol id="indicator" viewBox="0 0 28.556 21.121" xmlns="http://www.w3.org/2000/svg">
    <g data-name="Group 690" fill="currentColor">
    <path data-name="Path 494" d="M.002 14.258a14.273 14.273 0 0 1 28.333-2.438 13.93 13.93 0 0 1-1.134 8.514.912.912 0 0 1-.277.413c-.122.069-.418.062-.459-.011a.829.829 0 0 1-.094-.594c.3-.942.732-1.851.965-2.809a13.413 13.413 0 1 0-26.234-5.578 13.086 13.086 0 0 0 .966 8.077c.137.306.47.7-.007.935-.508.25-.617-.257-.768-.584a14.1 14.1 0 0 1-1.291-5.925z"/>
    <path data-name="Path 495" d="M23.874 14.674a4.394 4.394 0 0 1-.963.035c-.165-.031-.294-.259-.439-.4.149-.151.279-.394.453-.431a3.983 3.983 0 0 1 .958.029 9.539 9.539 0 0 0-2.545-6.133 4.828 4.828 0 0 1-.694.714.403.403 0 0 1-.569-.57 4.849 4.849 0 0 1 .713-.687 9.644 9.644 0 0 0-6.122-2.556c.018.33.051.628.044.925s-.133.556-.454.474a.706.706 0 0 1-.387-.477 3.926 3.926 0 0 1 .024-.915 9.514 9.514 0 0 0-6.115 2.551 4.538 4.538 0 0 1 .7.692c.092.138.009.393.005.594-.2-.006-.447.059-.588-.035a4.564 4.564 0 0 1-.674-.689 9.555 9.555 0 0 0-2.565 6.113 4.715 4.715 0 0 1 .988-.033c.166.028.3.254.446.391-.149.152-.278.4-.452.437a3.916 3.916 0 0 1-.958-.025 7.7 7.7 0 0 0 .641 3.058c.384.852.907 1.641 1.371 2.457.033.059.116.112.115.166-.006.226-.035.452-.056.678-.206-.055-.51-.043-.6-.177a14.683 14.683 0 0 1-1.422-2.311 10.459 10.459 0 1 1 17.785 2.2c-.18.236-.371.516-.707.28-.351-.247-.182-.532.021-.794a9.474 9.474 0 0 0 2.046-5.561z"/>
    <path data-name="Path 496" d="M14.274 21.117h-3.65a1.171 1.171 0 0 1-1.3-1.3c0-.412-.009-.824 0-1.235a1.085 1.085 0 0 1 1.118-1.15q3.831-.021 7.661 0a1.092 1.092 0 0 1 1.123 1.1 10.293 10.293 0 0 1 0 1.439 1.143 1.143 0 0 1-1.253 1.143c-1.234.006-2.469 0-3.7 0zm.016-.867c.924 0 1.848.01 2.772 0 1.523-.02 1.278.227 1.323-1.347.014-.487-.15-.667-.648-.662-2.036.02-4.072 0-6.109.01-1.683.01-1.4-.232-1.44 1.439-.01.422.132.576.56.569 1.18-.023 2.361-.009 3.542-.009z"/>
    <path data-name="Path 497" d="M13.853 10.868V8.811c0-.293.081-.519.416-.527s.446.222.447.507c.006 1.406.018 2.813-.016 4.218a.691.691 0 0 1-.417.514c-.342.059-.435-.232-.431-.546.006-.703.001-1.406.001-2.109z"/>
    </g>
  </symbol>
  <!-- replay -->
  <symbol id="replay" viewBox="0 0 30.917 24.695" xmlns="http://www.w3.org/2000/svg">
    <g data-name="Group 693" fill="currentColor">
    <path data-name="Path 498" d="M1.091 6.434L0 5.365 5.368 0l5.358 5.361-1.067.992-3.425-3.438-.089.043v16.983a1.562 1.562 0 0 0 1.695 1.7h9.15v1.524c-.08.008-.15.022-.219.022-3.033 0-6.066.01-9.1 0a3.055 3.055 0 0 1-3.02-2.5 4.072 4.072 0 0 1-.052-.8V2.916z"/>
    <path data-name="Path 499" d="M13.933 2.997V1.45h9.174a3.072 3.072 0 0 1 3.225 3.225v17.049l3.513-3.525 1.072 1.091-5.41 5.409-5.309-5.087 1.095-1.1 3.492 3.3V4.745a1.574 1.574 0 0 0-1.757-1.748h-8.665z"/>
    </g>
  </symbol>
  <!-- calendar -->
  <symbol id="calendar" viewBox="0 0 26.537 25.196" xmlns="http://www.w3.org/2000/svg">
    <g data-name="Group 695" fill="currentColor">
    <path data-name="Path 500" d="M6.63 2.64V.74A.67.67 0 1 1 7.964.727c.008.642 0 1.284 0 1.927v3.2a.678.678 0 0 1-.551.751.661.661 0 0 1-.783-.7c-.011-.528 0-1.057 0-1.585v-.344h-.422c-1.046 0-2.092-.01-3.138.014a1.694 1.694 0 0 0-1.74 1.818v16.195a1.727 1.727 0 0 0 1.715 1.857c.123.01.248.012.372.012h19.766a2.054 2.054 0 0 0 1.47-.473 1.758 1.758 0 0 0 .553-1.367q0-7.9-.005-15.792a4.614 4.614 0 0 0-.063-.956 1.643 1.643 0 0 0-1.613-1.294c-.508-.007-1.015-.009-1.522-.016-.474-.006-.774-.263-.778-.662a.677.677 0 0 1 .766-.673 12.041 12.041 0 0 1 1.854.056 3.3 3.3 0 0 1 2.689 3.323q-.018 7.911 0 15.822a3.3 3.3 0 0 1-3.3 3.352H3.281a3.285 3.285 0 0 1-3.284-3.3q.008-7.352.013-14.7a10.686 10.686 0 0 1 .082-1.98 3.23 3.23 0 0 1 3.192-2.57c1.1-.003 2.198-.002 3.346-.002z"/>
    <path data-name="Path 501" d="M18.563 3.954h-.381l-8.015.023a1.607 1.607 0 0 1-.4-.038.651.651 0 0 1 0-1.257 1.761 1.761 0 0 1 .43-.04q3.993-.01 7.984-.014h.384v-.441c0-.487-.006-.974 0-1.46A.669.669 0 1 1 19.9.715V5.842a.689.689 0 0 1-.534.766.666.666 0 0 1-.8-.713c-.003-.632-.003-1.263-.003-1.941z"/>
    <path data-name="Path 502" d="M14.536 11.154h-3.011a.654.654 0 0 1-.365-1.206.89.89 0 0 1 .411-.105q1.958-.01 3.915 0a.677.677 0 0 1 .639 1.029l-3.483 7.992c-.149.341-.3.683-.445 1.024-.213.488-.553.67-.94.508s-.491-.548-.283-1.026l3.376-7.768.186-.448z"/>
    </g>
  </symbol>
  <!-- palette -->
  <symbol id="palette" viewBox="0 0 30.429 25.315" xmlns="http://www.w3.org/2000/svg">
    <g data-name="Group 698" fill="currentColor">
    <path data-name="Path 503" d="M6.748 1.699c.166-.584.645-.635 1.136-.717 1.807-.3 3.612-.619 5.413-.958a3.187 3.187 0 0 1 1.173.124c1.847.311 3.689.657 5.538.958.392.064.54.32.724.589a.959.959 0 0 0 .267.3c1.6.934 3.21 1.855 4.809 2.793a1.273 1.273 0 0 1 .31.379c.071.1.114.219.192.312q1.963 2.348 3.934 4.691a.764.764 0 0 1-.082 1.08L19.29 20.373c-.292.245-.577.5-.878.733a1.2 1.2 0 0 0-.53.759c-.014.088-.123.182-.212.233q-2.711 1.576-5.428 3.141a.771.771 0 0 1-.98-.274l-5.281-9.151L.112 5.646a.759.759 0 0 1 .289-1.067l5.244-3.027a.9.9 0 0 1 1.103.147zm10.224 19.708L6.019 2.43l-5 2.888 10.952 18.975zM7.751 1.976c.094.533.165 1.032.273 1.522a2.634 2.634 0 0 0 .272.743q3.975 6.91 7.967 13.812c.049.084.106.163.159.244l.061-.023-3.05-17.3zm9.936 18.4l.054.052 11.661-9.787-3.612-4.3zm2.059-18.337l-5.324-.936 2.717 15.4.057-.006zm.822.811l-2.653 15.055.081.031 7.175-12.43z"/>
    <path data-name="Path 504" d="M12.831 18.407a1.62 1.62 0 1 1-1.61 1.62 1.626 1.626 0 0 1 1.61-1.62zm.67 1.622a.66.66 0 1 0-.641.649.632.632 0 0 0 .641-.649z"/>
    </g>
  </symbol>
  <!-- gear -->
  <symbol id="gear" viewBox="0 0 19.494 25.335" xmlns="http://www.w3.org/2000/svg">
    <g data-name="Group 707" fill="currentColor">
    <path data-name="Path 512" d="M.969 12.164h8.1V3.913h.975v8.242h8.482V3.914h.966v17.5h-.947v-8.255h-8.477v8.265h-.984v-8.29H1.205c-.848 0-1.2-.356-1.2-1.2V3.918h.969z"/>
    <path data-name="Path 513" d="M.023 0h.933v.929H.023z"/>
    <path data-name="Path 514" d="M10.025.941h-.924V.012h.924z"/>
    <path data-name="Path 515" d="M19.494.932h-.938V.019h.938z"/>
    <path data-name="Path 516" d="M9.094 24.402h.939v.914h-.939z"/>
    <path data-name="Path 517" d="M19.487 25.335h-.925v-.927h.925z"/>
    </g>
  </symbol>
  <!-- motor -->
  <symbol id="motor" viewBox="0 0 26.191 18.333" xmlns="http://www.w3.org/2000/svg">
    <g data-name="Group 710" fill="currentColor">
    <path data-name="Path 518" d="M23.57 13.981h-.873v2.066a.586.586 0 0 1-.248.512c-.678.535-1.346 1.083-2.029 1.611a.787.787 0 0 1-.443.157q-4.486.013-8.974 0a.813.813 0 0 1-.445-.156q-1.536-1.133-3.055-2.288a.8.8 0 0 0-.522-.173c-.973.009-1.946.005-2.919 0-.429 0-.573-.142-.574-.569V11.8h-.872v3.38c0 .376-.153.528-.529.53H.505a.442.442 0 0 1-.506-.5V5.282a.435.435 0 0 1 .493-.483h1.61c.355 0 .512.161.513.519v3.393h.873V5.378c0-.442.141-.579.591-.58h3.028a1.348 1.348 0 0 0 .448-.083c1.014-.372 2.023-.758 3.037-1.129a1.51 1.51 0 0 1 .5-.09c1.09-.008 2.179 0 3.288 0v-.873H12.8c-.446 0-.583-.139-.584-.586v-1.5c0-.372.16-.532.53-.532h7.228c.377 0 .533.154.535.525v1.554c0 .39-.152.537-.55.539h-1.617v.873h3.774c.429 0 .576.143.577.567v2.47h.872v-1.2c0-.376.154-.525.531-.529.264 0 .528-.005.791 0a1.3 1.3 0 0 1 1.294 1.282q.009 4.173 0 8.347a1.29 1.29 0 0 1-1.265 1.28c-.282.009-.564.006-.846 0a.446.446 0 0 1-.5-.5c-.003-.4 0-.8 0-1.232zm-1.746-9.606c-.086 0-.139-.009-.192-.009H11.16a1.069 1.069 0 0 0-.369.074c-1.029.382-2.055.772-3.085 1.153a1.274 1.274 0 0 1-.423.076c-.882.007-1.764 0-2.645 0h-.259v9.165h.3c.864 0 1.728-.009 2.591.008a.968.968 0 0 1 .52.174c1.026.752 2.038 1.523 3.06 2.28a.713.713 0 0 0 .387.151q4.254.012 8.508 0a.551.551 0 0 0 .315-.114 54.395 54.395 0 0 0 1.594-1.28.5.5 0 0 0 .158-.336c.015-.709 0-1.418.009-2.127a.441.441 0 0 1 .5-.5c.528-.005 1.055 0 1.582 0 .377 0 .529.154.532.529v1.187c.581.093.9.021.881-.7-.029-1.135-.008-2.272-.008-3.408v-4.5c0-.373-.158-.525-.531-.53h-.341v1.226c0 .36-.157.516-.513.519h-1.418c-.592 0-.687-.1-.687-.7zM.886 14.82h.85V5.691h-.85zM19.632.892H13.12v.841h6.512zm-4.346 2.584h2.157v-.834h-2.157zm-11.8 6.141H2.64v1.274h.846z"/>
    <path data-name="Path 519" d="M16.468 8.731c.471 0 .9.005 1.319 0a.456.456 0 0 1 .357.815q-2.766 2.976-5.528 5.951c-.217.234-.418.28-.623.152s-.258-.355-.125-.649q.859-1.9 1.722-3.791c.037-.081.07-.164.125-.294h-.937c-.454 0-.635-.233-.507-.661q.624-2.086 1.253-4.169c.1-.324.211-.407.55-.407h3.3c.466 0 .65.321.419.731-.43.756-.863 1.512-1.325 2.322zm.379.924c-.027-.031-.033-.043-.038-.043-.336 0-.673 0-1.009-.009-.467-.006-.648-.32-.418-.732.239-.429.484-.854.727-1.28.191-.336.383-.671.6-1.043h-1.541c-.282 0-.643-.1-.823.041s-.213.515-.3.791c-.266.875-.526 1.752-.788 2.627.036.015.051.028.067.028.327 0 .654 0 .982.005.458 0 .643.284.456.7-.285.638-.577 1.273-.865 1.91-.03.066-.054.134-.081.2l.039.02z"/>
    </g>
  </symbol>
  <!-- station -->
  <symbol id="station" viewBox="0 0 22.623 25.334" xmlns="http://www.w3.org/2000/svg">
    <g data-name="Group 701" fill="currentColor">
    <path data-name="Path 505" d="M15.703 9.998h.353c.809.012 1.621-.015 2.427.044a3.148 3.148 0 0 1-.164 6.281c-1.782.031-3.565.01-5.348.012h-.336v.631a.82.82 0 0 0 .127.02c1.865 0 3.73.019 5.593-.012a3.8 3.8 0 0 0 .833-7.457 10.388 10.388 0 0 0-1.839-.153c-.388-.021-.535-.088-.535-.311s.152-.31.533-.314a6.591 6.591 0 0 1 2.265.238 4.436 4.436 0 0 1-1.432 8.633c-.808.013-1.617 0-2.451 0v4.442a6.983 6.983 0 0 1 1.028.455 1.176 1.176 0 0 1 .514 1.006c.01.464.009.928.006 1.392 0 .339-.095.426-.446.426H.514c-.456 0-.513-.057-.513-.522v-1.173a1.419 1.419 0 0 1 1.426-1.474c.036 0 .072-.006.15-.014v-.342V2.348A2.166 2.166 0 0 1 3.117.101a2.708 2.708 0 0 1 .751-.1q4.761-.009 9.523 0a2.175 2.175 0 0 1 2.308 2.281c.009 1.1 0 2.2 0 3.3v4.415zm0 .627v3.625c0 .335-.094.484-.3.488s-.317-.153-.318-.5v-.11V2.313a1.572 1.572 0 0 0-1.7-1.7H3.891a1.574 1.574 0 0 0-1.69 1.686v19.674c0 .6.153.856-.75.818a.75.75 0 0 0-.814.687c-.032.4-.007.812-.007 1.225h16.037v-.889c0-.758-.274-1.032-1.037-1.032H3.975c-.217 0-.412-.027-.43-.3-.014-.211.137-.315.441-.317h11.075v-4.536h-2.428l-.016.171a1.409 1.409 0 0 1-1.108 1.325 97.51 97.51 0 0 1-3.115.671.9.9 0 0 1-1.017-.634c-.034-.109-.052-.224-.081-.353h-2.27a1.744 1.744 0 0 1-.511-.059.88.88 0 0 1 .279-1.709c.745-.01 1.491 0 2.237 0h.278v-.7H4.84a.879.879 0 0 1-.078-1.756c.753-.028 1.509-.01 2.264-.012h.279c.112-.795.561-1.113 1.308-.955.932.2 1.87.377 2.793.613a1.677 1.677 0 0 1 .826.476 4.11 4.11 0 0 1 .481.971c-.052.041-.036.053-.02.053 1.892 0 3.784.035 5.674-.013a2.507 2.507 0 0 0 2.373-2.551 2.536 2.536 0 0 0-2.475-2.511c-.655-.018-1.31-.013-1.964-.017-.191-.016-.38-.016-.599-.016zM7.94 16.663v2.071c0 .386.132.5.5.424q1.425-.3 2.846-.609a.834.834 0 0 0 .713-.868q.018-.995 0-1.989a.84.84 0 0 0-.73-.883q-1.407-.309-2.819-.6c-.372-.079-.511.036-.512.414-.001.678.001 1.359.001 2.04zm-.621-1.485c-.853 0-1.679-.008-2.5.011a.354.354 0 0 0-.251.243c0 .091.139.193.231.275.031.028.1.009.16.009h2.154a1.986 1.986 0 0 0 .211-.021zm0 2.468h-2.4c-.189 0-.365.041-.368.268 0 .25.186.272.383.272h2.18c.069 0 .138-.014.2-.021z"/>
    <path data-name="Path 506" d="M8.635 2.298h4.472c.386 0 .479.092.479.484v7.2c0 .389-.092.481-.485.481H4.158c-.373 0-.465-.093-.465-.473V2.763c0-.373.095-.464.471-.464zm4.313.639h-8.61v6.88h8.61z"/>
    </g>
  </symbol>
  <!-- seats -->
  <symbol id="seats" viewBox="0 0 29.188 24.962" xmlns="http://www.w3.org/2000/svg">
    <g data-name="Group 704" fill="currentColor">
    <path data-name="Path 507" d="M1.762 10.61V4.99a11.959 11.959 0 0 1 .026-1.242 2.19 2.19 0 0 1 2.16-1.983c.319-.01.639 0 1 0 0-.231-.009-.424 0-.616A1.124 1.124 0 0 1 6.125.009q2.264-.014 4.526 0a1.125 1.125 0 0 1 1.187 1.2v.558c1.026-.028 2.035-.059 2.747.905a2.8 2.8 0 0 1 2.751-.888v-.617A1.107 1.107 0 0 1 18.46.016q2.314-.02 4.63 0a1.112 1.112 0 0 1 1.13 1.079c.017.205 0 .413 0 .676h.841a2.231 2.231 0 0 1 2.353 2.37V10.619c.213 0 .4-.007.595 0a1.149 1.149 0 0 1 1.165 1.194c.006.334.005.668 0 1a1.142 1.142 0 0 1-1.183 1.173h-.57v1.453a2.381 2.381 0 0 0 .235 1.4.826.826 0 0 1 .1.431c.009 1.011.005 2.023.005 3.064h-1.494c-.119.507-.236.994-.349 1.482-.217.941-.442 1.881-.642 2.826-.055.261-.172.319-.418.318q-4.078-.012-8.155 0c-.3 0-.387-.112-.445-.375-.294-1.325-.611-2.645-.9-3.97-.048-.212-.13-.283-.344-.273-.367.016-.735 0-1.133 0l-.54 2.324c-.153.661-.316 1.32-.454 1.984-.046.22-.126.3-.359.3q-4.129-.012-8.259 0c-.293 0-.336-.146-.384-.359q-.451-1.984-.911-3.968c-.02-.089-.049-.176-.08-.286H1.399v-.981c0-.6-.031-1.2.01-1.8a6.155 6.155 0 0 1 .25-1.06c.02-.076.085-.147.086-.221.007-.757 0-1.514 0-2.309h-.573a1.145 1.145 0 0 1-1.18-1.177 27.78 27.78 0 0 1 0-1 1.15 1.15 0 0 1 1.169-1.19c.194.005.375.011.601.011zm13.288 5.14a6.577 6.577 0 0 1 1.014-.17c1.853-.015 3.707-.007 5.56-.007h.378v.889h-5.885a.976.976 0 0 0-1.084 1.091v1.59c0 .1.015.2.023.293h11.83c0-.546-.028-1.075.006-1.6.058-.889-.268-1.462-1.4-1.382-.443.032-.889.005-1.34.005v-.852h2.377v-1.628h-.516a1.169 1.169 0 0 1-1.262-1.244v-.863a1.176 1.176 0 0 1 1.245-1.264h.485a.548.548 0 0 0 .04-.113c0-2.188.013-4.376 0-6.563a1.228 1.228 0 0 0-.954-1.212 9.848 9.848 0 0 0-1.342-.089v.554a1.154 1.154 0 0 1-1.231 1.238q-2.227.016-4.455 0a1.143 1.143 0 0 1-1.209-1.219v-.555h-.743a1.369 1.369 0 0 0-1.566 1.566v6.011c0 .12.012.241.019.381.213 0 .385-.005.556 0a1.165 1.165 0 0 1 1.2 1.237c0 .322.005.645 0 .967a1.15 1.15 0 0 1-1.159 1.165c-.192.006-.385 0-.594 0zm-12.4-5.14h.57a1.171 1.171 0 0 1 1.21 1.229c0 .322.007.645 0 .967a1.161 1.161 0 0 1-1.192 1.174h-.557v1.592h1.056c1.715 0 3.431-.026 5.146.006a36.813 36.813 0 0 1 5.258.134V13.98h-.529a1.156 1.156 0 0 1-1.224-1.207v-.968a1.158 1.158 0 0 1 1.168-1.194c.191-.008.382 0 .553 0a.628.628 0 0 0 .041-.116c0-2.188.015-4.376 0-6.564a1.218 1.218 0 0 0-.988-1.218 9.615 9.615 0 0 0-1.316-.075c0 .286.01.5 0 .72a1.017 1.017 0 0 1-.84 1.006c-.8.06-1.6.017-2.4.017v-.844c.665 0 1.309-.005 1.952 0 .266 0 .416-.088.414-.375V1.227c0-.246-.122-.355-.363-.355H6.222c-.253 0-.387.106-.386.371v1.935a.317.317 0 0 0 .364.357h.586v.868a2.057 2.057 0 0 1-1.322-.185c-.575-.375-.5-.982-.526-1.573h-.714a1.375 1.375 0 0 0-1.573 1.56v6.4zm1.215 9.742a1.18 1.18 0 0 0 .012.155c.256 1.121.518 2.24.765 3.363.047.213.18.2.332.2H12.117l.864-3.736H7.906v-.887h6.242c0-.727.026-1.417-.008-2.1a.914.914 0 0 0-.971-.878c-.4-.009-.806 0-1.209 0H3.386c-.584 0-1.022.272-1.06.773-.055.728-.014 1.463-.014 2.227h3.406v.89zm12.4.01a.467.467 0 0 0-.007.114c.257 1.133.509 2.266.783 3.395a.372.372 0 0 0 .289.19c2.315.01 4.63.006 6.945.012.191 0 .253-.075.29-.252.1-.484.221-.964.332-1.446l.462-2.013zm4.519-16.82c.713 0 1.425-.007 2.138 0 .3 0 .449-.1.444-.42q-.015-.913 0-1.827c0-.289-.112-.422-.407-.421q-2.172.008-4.344 0c-.279 0-.392.127-.389.4.007.61.011 1.219 0 1.828-.007.331.138.446.458.44.691-.005 1.392-.005 2.093-.005zM2.193 13.09h1c.247 0 .355-.113.351-.357v-.895a.3.3 0 0 0-.338-.337H1.244c-.25 0-.352.123-.35.361 0 .287.006.574 0 .861-.005.258.1.381.371.373.301-.013.611-.006.921-.006zm24.769 0h1c.228 0 .341-.1.341-.33v-.929c0-.229-.116-.332-.342-.332H26c-.248 0-.349.126-.345.366.005.286.008.573 0 .86-.006.265.118.373.377.367.303-.008.613-.002.923-.002zm-12.36 0h1a.279.279 0 0 0 .319-.315v-.963c0-.217-.121-.31-.326-.31h-2a.281.281 0 0 0-.319.317v.929c0 .251.12.35.361.345.316-.008.637-.003.958-.003z"/>
    <path data-name="Path 508" d="M23.064 7.243h-4.556v-.844h4.556z"/>
    <path data-name="Path 509" d="M18.499 10.058v-.821h4.573v.823z"/>
    <path data-name="Path 510" d="M6.117 6.393h4.569v.843H6.117z"/>
    <path data-name="Path 511" d="M10.686 9.228v.836H6.117v-.836z"/>
    </g>
  </symbol>

  <!-- replace -->
   <symbol id="replace" viewBox="0 0 18.349 17.579" xmlns="http://www.w3.org/2000/svg">
      <g data-name="Group 1378">
      <g data-name="Group 1365">
      <path data-name="Path 831" d="M17.001 10.187a1.352 1.352 0 0 1 1.348 1.348v2.525a.86.86 0 0 1-.859.858H9.174v-.738h8.316a.123.123 0 0 0 .121-.12v-2.525a.613.613 0 0 0-.61-.609v-.739a.37.37 0 0 1 0 .739H9.174v-.739zm-7.827 4.731H.858A.86.86 0 0 1 0 14.06v-2.525a1.352 1.352 0 0 1 1.348-1.348h7.826v.739H1.348a.613.613 0 0 0-.61.609v2.525a.123.123 0 0 0 .12.12h8.316z" fill="currentColor"/>
      </g>
      <g data-name="Group 1366">
      <path data-name="Path 832" d="M15.691 10.717a.369.369 0 0 0 .664-.32l-1.6-3.326a.366.366 0 0 0-.308-.208 37.768 37.768 0 0 0-5.127-.355 41.145 41.145 0 0 0-5.441.358l.047.365-.048-.366a.371.371 0 0 0-.295.23l-1.589 3.3a.369.369 0 0 0 .664.32l1.514-3.147a40.232 40.232 0 0 1 5.148-.327 37.15 37.15 0 0 1 4.857.326z" fill="currentColor"/>
      </g>
      <g data-name="Group 1367">
      <path data-name="Path 833" d="M15.366 16.841h.688a.093.093 0 0 0 .063-.027.09.09 0 0 0 .026-.063v-1.833h-.777v-.738h1.146a.369.369 0 0 1 .369.369v2.2a.83.83 0 0 1-.827.828h-.688zm-.688 0h.688v.738h-.688a.83.83 0 0 1-.828-.828v-2.2a.369.369 0 0 1 .369-.369h1.147v.738h-.778v1.833a.087.087 0 0 0 .027.063.091.091 0 0 0 .063.025z" fill="currentColor"/>
      </g>
      <g data-name="Group 1368">
      <path data-name="Path 834" d="M3.671 17.579h-.688v-.738h.688a.092.092 0 0 0 .09-.09v-1.833h-.778v-.738H4.13a.369.369 0 0 1 .369.369v2.2a.83.83 0 0 1-.828.828zm-.688 0h-.688a.83.83 0 0 1-.827-.828v-2.2a.369.369 0 0 1 .369-.369h1.146v.738h-.777v1.833a.09.09 0 0 0 .026.063.093.093 0 0 0 .063.027h.688z" fill="currentColor"/>
      </g>
      <g data-name="Group 1369">
      <path data-name="Path 835" d="M15.268 11.323a1.269 1.269 0 0 1 0 2.538v-.738a.531.531 0 0 0 0-1.062zm0 0v.738a.531.531 0 1 0 0 1.062v.738a1.269 1.269 0 1 1 0-2.538z" fill="currentColor"/>
      </g>
      <g data-name="Group 1370">
      <path data-name="Path 836" d="M3.081 13.123a.531.531 0 1 0 0-1.062v-.738a1.269 1.269 0 0 1 0 2.538zm0-1.062a.531.531 0 0 0 0 1.062v.738a1.269 1.269 0 0 1 0-2.538z" fill="currentColor"/>
      </g>
      <g data-name="Group 1371">
      <path data-name="Path 837" d="M6.358 11.631a.369.369 0 1 0 0 .738h5.633a.369.369 0 1 0 0-.738z" fill="currentColor"/>
      </g>
      <g data-name="Group 1372">
      <path data-name="Path 838" d="M6.358 12.815a.369.369 0 0 0 0 .738h5.633a.369.369 0 0 0 0-.738z" fill="currentColor"/>
      </g>
      <g data-name="Group 1373">
      <path data-name="Path 839" d="M1.474 9.196a.369.369 0 1 0 0 .738h.638a.369.369 0 1 0 0-.738z" fill="currentColor"/>
      </g>
      <g data-name="Group 1374">
      <path data-name="Path 840" d="M16.237 9.196a.369.369 0 1 0 0 .738h.638a.369.369 0 1 0 0-.738z" fill="currentColor"/>
      </g>
      <g data-name="Group 1375">
      <path data-name="Path 841" d="M9.211 2.441h3.649a.543.543 0 0 0 .535-.34.7.7 0 0 0 .047-.255.691.691 0 0 0-.047-.255.542.542 0 0 0-.535-.34H9.211V.697h3.649a1.075 1.075 0 0 1 1.048.691 1.249 1.249 0 0 1 0 .916 1.075 1.075 0 0 1-1.048.69H9.211zm-1.9 0h1.9v.553H7.45a1.925 1.925 0 0 1-.609.483 1.993 1.993 0 0 1-.9.214 1.851 1.851 0 0 1-1.136-.33 1.155 1.155 0 0 1-.448-.956.214.214 0 0 1 0-.05.276.276 0 0 1 .316-.23l.9.14.278-.379-.292-.46-.856.135a.308.308 0 0 1-.068.008.277.277 0 0 1-.276-.277 1.159 1.159 0 0 1 .448-.963 1.85 1.85 0 0 1 1.136-.33 1.991 1.991 0 0 1 .9.215 1.9 1.9 0 0 1 .609.482h1.761v.554h-1.9a.277.277 0 0 1-.235-.13 1.355 1.355 0 0 0-.487-.413 1.436 1.436 0 0 0-.655-.154 1.318 1.318 0 0 0-.8.213.588.588 0 0 0-.16.192l.667-.1a.276.276 0 0 1 .283.136l.483.761a.277.277 0 0 1-.022.328l-.478.651-.223-.163.223.164a.275.275 0 0 1-.29.1l-.643-.1a.577.577 0 0 0 .16.192 1.314 1.314 0 0 0 .8.214 1.448 1.448 0 0 0 .655-.154 1.363 1.363 0 0 0 .5-.426l.226.159-.226-.159a.273.273 0 0 1 .226-.12z" fill="currentColor"/>
      </g>
      <g data-name="Group 1376">
      <path data-name="Path 842" d="M11.483 3.63h1.634a1.453 1.453 0 0 1 .948.343 1.154 1.154 0 0 1 .416.872 1.15 1.15 0 0 1-.416.871 1.454 1.454 0 0 1-.948.344h-1.631v-.554h1.631a.9.9 0 0 0 .587-.207.6.6 0 0 0 .223-.454.6.6 0 0 0-.223-.454.9.9 0 0 0-.587-.208h-1.631zM8.489 5.783V3.907a.277.277 0 0 1 .277-.277h.753a.277.277 0 0 1 .245.148.365.365 0 0 0 .132.115.474.474 0 0 0 .22.052.474.474 0 0 0 .22-.052.359.359 0 0 0 .141-.128l.236.142-.237-.143a.277.277 0 0 1 .243-.134h.764v.553h-.633a.914.914 0 0 1-.257.2 1.012 1.012 0 0 1-.477.118 1.015 1.015 0 0 1-.477-.118.914.914 0 0 1-.257-.2h-.339v1.323h.339a.947.947 0 0 1 .257-.2 1.02 1.02 0 0 1 .477-.117 1.02 1.02 0 0 1 .477.117.947.947 0 0 1 .257.2h.633v.554h-.766a.276.276 0 0 1-.245-.149.363.363 0 0 0-.132-.114.474.474 0 0 0-.22-.052.474.474 0 0 0-.22.052.354.354 0 0 0-.141.128l-.236-.142.237.142a.278.278 0 0 1-.243.135H8.77a.277.277 0 0 1-.281-.277z" fill="currentColor"/>
      </g>
      <g data-name="Group 1377">
      <path data-name="Rectangle 421" fill="currentColor" d="M4.148 4.568h4.618v.554H4.148z"/>
      </g>
      </g>
    </symbol>

    <!-- repair   -->
     <symbol id="repair" viewBox="0 0 17.995 9.416" xmlns="http://www.w3.org/2000/svg">
        <g data-name="Group 1363">
        <g data-name="Group 1348">
        <path data-name="Path 816" d="M12.119 2.284a1.049 1.049 0 0 1 .8.233l-.232.286.234-.286.013.011a1.136 1.136 0 0 1 .391.725l.247 1.91a.747.747 0 0 1-.135.537.71.71 0 0 1-.485.289l-6.163.8v-.741l6.053-.784v-.007l-.248-1.91a.4.4 0 0 0-.134-.251l-.008-.006a.318.318 0 0 0-.243-.073l-.092-.73a.368.368 0 0 1 .092.73l-5.422.7v-.741zm-5.33 4.5l-5.724.741-.082.006v-.723l.007-.009-.007.009v-.042.023l5.8-.75v.741zM.983 3.722l5.806-.751v.741l-5.732.742a.343.343 0 0 1-.054.008l-.02.005zm0 3.809h-.01v-.714l.008-.009v.723zM.975 3.723h.008v.745H.975v-.746zm.008 3.043l-.008-.059v.11l.008-.009zm-.008.765a.648.648 0 0 1-.109-.009V6.95l.109-.133v.714zM.866 3.74c.021 0 .042-.008.064-.011h.045v.746a.323.323 0 0 0-.109.061v-.79zm.109 2.967l-.109-.841V6.95l.109-.133zm-.109.815a.707.707 0 0 1-.342-.153L.492 7.34a.76.76 0 0 1-.236-.459L.009 4.972a.256.256 0 0 1 0-.039 1.13 1.13 0 0 1 .208-.774A1.05 1.05 0 0 1 .87 3.74v.79a.364.364 0 0 0-.056.061.4.4 0 0 0-.074.263.346.346 0 0 1 .006.055l.124.957V6.95l-.109.133.109-.133z" fill="currentColor"/>
        </g>
        <g data-name="Group 1349">
        <path data-name="Path 817" d="M11.153 2.933a.368.368 0 0 0 .626-.387L10.309.178l-.313.193.314-.194a.369.369 0 0 0-.34-.174 25.889 25.889 0 0 0-3.7.206A28.12 28.12 0 0 0 2.4.987l.1.355-.1-.356a.369.369 0 0 0-.263.275l-.809 2.637a.368.368 0 1 0 .7.216l.759-2.47A27.238 27.238 0 0 1 6.36.939a25.157 25.157 0 0 1 3.43-.2z" fill="currentColor"/>
        </g>
        <g data-name="Group 1350">
        <path data-name="Path 818" d="M11.517 7.481l.538-.07-.166-1.284-.372.048v-.741l.61-.079.032-.006a.369.369 0 0 1 .413.319l-.366.047.365-.046.214 1.652a.489.489 0 0 1 .009.078.7.7 0 0 1-.559.729.418.418 0 0 1-.081.012l-.637.082zm-.372.048l.372-.048v.741l-.315.041a.7.7 0 0 1-.781-.6l-.214-1.653-.006-.031a.369.369 0 0 1 .319-.414l.047.366-.046-.364 1-.129v.741l-.538.07z" fill="currentColor"/>
        </g>
        <g data-name="Group 1351">
        <path data-name="Path 819" d="M3.335 9.281l-.668.086v-.741l.538-.07-.166-1.284-.372.048v-.741l.642-.083a.371.371 0 0 1 .414.319v.032l.214 1.655a.7.7 0 0 1-.6.781zm-.668.086l-.315.041a.7.7 0 0 1-.781-.6l-.218-1.684a.368.368 0 0 1 .318-.413h.032l.965-.125v.741l-.538.07.167 1.284.371-.048z" fill="currentColor"/>
        </g>
        <g data-name="Group 1352">
        <path data-name="Path 820" d="M11.125 3.388a.906.906 0 0 1 .567.207l-.174.214.175-.214.009.007a.99.99 0 0 1 .34.63.977.977 0 0 1-.176.7.9.9 0 0 1-.618.37.832.832 0 0 1-.123.007v-.552a.333.333 0 0 0 .054 0 .353.353 0 0 0 .239-.147.435.435 0 0 0-.07-.582l-.006-.005a.364.364 0 0 0-.218-.084zm-.123.007a.847.847 0 0 1 .123-.007v.551h-.053a.356.356 0 0 0-.24.147.438.438 0 0 0 .07.582h.006a.359.359 0 0 0 .218.083v.563a.909.909 0 0 1-.566-.207l.174-.214-.175.214-.009-.008a.995.995 0 0 1-.165-1.331.9.9 0 0 1 .617-.373z" fill="currentColor"/>
        </g>
        <g data-name="Group 1353">
        <path data-name="Path 821" d="M2.425 4.514a.911.911 0 0 1 .549.2l.009.007a.992.992 0 0 1 .173 1.338.9.9 0 0 1-.618.37.847.847 0 0 1-.113.007v-.551h.044a.358.358 0 0 0 .24-.147.44.44 0 0 0-.075-.587l.174-.214-.175.215h-.006a.358.358 0 0 0-.2-.079zm-.163.012a.238.238 0 0 1 .059-.008.88.88 0 0 1 .1 0v.552a.443.443 0 0 0-.062 0h-.018a.357.357 0 0 0-.223.144.432.432 0 0 0-.076.308v.019a.428.428 0 0 0 .149.26l.013.011a.354.354 0 0 0 .214.074v.551a.905.905 0 0 1-.556-.191l-.021-.016.175-.214-.175.214a.984.984 0 0 1-.345-.607.263.263 0 0 1-.007-.057.976.976 0 0 1 .179-.675.9.9 0 0 1 .594-.364z" fill="currentColor"/>
        </g>
        <g data-name="Group 1354">
        <path data-name="Path 822" d="M4.665 4.452a.276.276 0 0 0 .069.547l4.026-.521a.276.276 0 0 0-.069-.547z" fill="currentColor"/>
        </g>
        <g data-name="Group 1355">
        <path data-name="Path 823" d="M4.781 5.348a.276.276 0 0 0 .069.547l4.026-.521a.276.276 0 1 0-.07-.547z" fill="currentColor"/>
        </g>
        <g data-name="Group 1356">
        <path data-name="Path 824" d="M9.96 7.863a.369.369 0 1 0-.738 0v1.014a.369.369 0 0 0 .738 0z" fill="currentColor"/>
        </g>
        <g data-name="Group 1357">
        <path data-name="Path 825" d="M9.773 6.992a.184.184 0 0 0-.369 0v1.014a.184.184 0 0 0 .369 0z" fill="currentColor"/>
        </g>
        <g data-name="Group 1358">
        <path data-name="Path 826" d="M9.194 8.677a.369.369 0 0 0 0 .738h.794a.369.369 0 1 0 0-.738z" fill="currentColor"/>
        </g>
        <g data-name="Group 1359">
        <path data-name="Path 827" d="M9.465 6.623a.184.184 0 1 0 0 .369h.253a.184.184 0 0 0 0-.369z" fill="currentColor"/>
        </g>
        <g data-name="Group 1360">
        <path data-name="Path 828" d="M15.694 6.005a3.91 3.91 0 0 1 1.55.29c.446.2.721.49.721.826s-.275.628-.721.827a3.91 3.91 0 0 1-1.55.29v-.369a3.53 3.53 0 0 0 1.4-.257c.31-.138.5-.313.5-.491s-.192-.352-.5-.491a3.548 3.548 0 0 0-1.4-.256zm-2.271 1.116c0-.336.275-.628.72-.826a3.915 3.915 0 0 1 1.551-.29v.369a3.557 3.557 0 0 0-1.4.256c-.31.139-.5.313-.5.491s.191.353.5.491a3.538 3.538 0 0 0 1.4.257v.369a3.915 3.915 0 0 1-1.551-.29c-.445-.199-.72-.49-.72-.827z" fill="currentColor"/>
        </g>
        <g data-name="Group 1361">
        <path data-name="Path 829" d="M15.694 6.64a2 2 0 0 1 .628.092c.222.077.36.206.36.37s-.138.293-.36.37a1.989 1.989 0 0 1-.628.092v-.369a1.644 1.644 0 0 0 .508-.07c.069-.024.111-.013.111-.023s-.042 0-.111-.023a1.645 1.645 0 0 0-.508-.07zm-.988.462c0-.164.137-.293.36-.37a1.991 1.991 0 0 1 .628-.092v.369a1.652 1.652 0 0 0-.509.07c-.068.024-.11.013-.11.023s.042 0 .11.023a1.651 1.651 0 0 0 .509.07v.369a1.984 1.984 0 0 1-.628-.092c-.223-.077-.36-.206-.36-.37z" fill="currentColor"/>
        </g>
        <g data-name="Group 1362">
        <path data-name="Path 830" d="M17.964 7.114a.184.184 0 1 0-.367.015l.014.312a4.328 4.328 0 0 1-.006.785c-.014.121-.239.276-.593.409a3.9 3.9 0 0 1-1.347.227 3.616 3.616 0 0 1-1.292-.223c-.348-.136-.563-.294-.575-.411a6.613 6.613 0 0 1-.034-.623 2.7 2.7 0 0 1 .025-.453.185.185 0 0 0-.364-.061 3.354 3.354 0 0 0-.029.516c0 .228.016.469.036.659.026.251.328.528.809.716a3.993 3.993 0 0 0 1.424.249 4.294 4.294 0 0 0 1.477-.251c.485-.183.8-.453.829-.712a4.611 4.611 0 0 0 .008-.844c-.006-.095-.006-.202-.015-.31z" fill="currentColor"/>
        </g>
        </g>
      </symbol>
      <!-- engine -->
      <symbol id="engine" viewBox="0 0 17.716 13.617"  xmlns="http://www.w3.org/2000/svg">
        <g data-name="Group 1396">
        <g data-name="Group 1380">
        <path data-name="Path 843" d="M14.954 7.36h-4.36a.369.369 0 0 1-.3-.158 3.097 3.097 0 0 0-.194-.219v-.976a4.143 4.143 0 0 1 .668.615h4.186a1.878 1.878 0 0 1 1.873 1.873v.842a2.842 2.842 0 0 1-2.836 2.836h-3.225a4.194 4.194 0 0 1-.668.616v-.977a3.147 3.147 0 0 0 .21-.238.368.368 0 0 1 .288-.138h3.4a2.1 2.1 0 0 0 2.1-2.1v-.842a1.14 1.14 0 0 0-1.135-1.135zm-4.856-.377a3.488 3.488 0 1 0 0 4.829v.977a4.223 4.223 0 1 1 0-6.782z" fill="currentColor"/>
        </g>
        <g data-name="Group 1381">
        <path data-name="Path 844" d="M17.346 8.804a.369.369 0 1 0 0-.738h-.613a.369.369 0 1 0 0 .738z" fill="currentColor"/>
        </g>
        <g data-name="Group 1382">
        <path data-name="Path 845" d="M17.346 10.331a.369.369 0 1 0 0-.738h-.613a.369.369 0 1 0 0 .738z" fill="currentColor"/>
        </g>
        <g data-name="Group 1383">
        <path data-name="Path 846" d="M12.886 4.652a.369.369 0 0 0-.521-.522l-2.128 2.127a.37.37 0 0 0 .522.522z" fill="currentColor"/>
        </g>
        <g data-name="Group 1384">
        <path data-name="Path 847" d="M2.891 4.13a.37.37 0 1 0-.522.522l2.127 2.127a.37.37 0 0 0 .522-.522z" fill="currentColor"/>
        </g>
        <g data-name="Group 1385">
        <path data-name="Path 848" d="M11.129 2.885a.368.368 0 1 0-.53-.511L7.805 5.292a.368.368 0 1 0 .53.51z" fill="currentColor"/>
        </g>
        <g data-name="Group 1386">
        <path data-name="Path 849" d="M12.477.108a.37.37 0 0 0-.522.522l2.67 2.67a.37.37 0 1 0 .522-.522z" fill="currentColor"/>
        </g>
        <g data-name="Group 1387">
        <path data-name="Path 850" d="M11.269.698a.369.369 0 0 0-.521.522l3.287 3.288a.37.37 0 0 0 .522-.522z" fill="currentColor"/>
        </g>
        <g data-name="Group 1388">
        <path data-name="Path 851" d="M10.671 1.915a.37.37 0 0 0-.522.522l2.67 2.67a.37.37 0 0 0 .522-.522z" fill="currentColor"/>
        </g>
        <g data-name="Group 1389">
        <path data-name="Path 852" d="M14.337 1.44a.37.37 0 0 0-.522-.522l-.293.293a.37.37 0 0 0 .522.522z" fill="currentColor"/>
        </g>
        <g data-name="Group 1390">
        <path data-name="Path 853" d="M4.654 2.369a.368.368 0 1 0-.519.522l2.9 2.89a.367.367 0 1 0 .518-.521z" fill="currentColor"/>
        </g>
        <g data-name="Group 1391">
        <path data-name="Path 854" d="M3.3.63a.37.37 0 0 0-.522-.522l-2.67 2.67A.37.37 0 1 0 .63 3.3z" fill="currentColor"/>
        </g>
        <g data-name="Group 1392">
        <path data-name="Path 855" d="M4.508 1.215a.37.37 0 0 0-.522-.522L.698 3.981a.37.37 0 0 0 .522.522z" fill="currentColor"/>
        </g>
        <g data-name="Group 1393">
        <path data-name="Path 856" d="M5.107 2.436a.37.37 0 0 0-.522-.522l-2.67 2.67a.37.37 0 0 0 .522.522z" fill="currentColor"/>
        </g>
        <g data-name="Group 1394">
        <path data-name="Path 857" d="M1.441.915a.37.37 0 0 0-.522.522l.293.293a.37.37 0 0 0 .522-.522z" fill="currentColor"/>
        </g>
        <g data-name="Group 1395">
        <path data-name="Path 858" d="M7.628 7.915a1.482 1.482 0 1 1 0 2.964v-.739a.744.744 0 1 0 0-1.487zm0 2.964a1.482 1.482 0 1 1 0-2.964v.738a.744.744 0 1 0 0 1.487z" fill="currentColor"/>
        </g>
        </g>
      </symbol>

      <!-- body -->
      <symbol id="body" viewBox="0 0 22.447 11.697" xmlns="http://www.w3.org/2000/svg">
        <g data-name="Group 1423" fill="currentColor">
        <path data-name="Path 880" d="M19.969 4.264l-.907-2.043A3.745 3.745 0 0 0 15.643 0H9.704a3.733 3.733 0 0 0-3.112 1.665l-1.74 2.611L.675 5.53a.933.933 0 0 0-.671.894V9.35c0 2.17 2.8 2.937 2.8 1.871a1.871 1.871 0 1 1 3.741 0 .467.467 0 0 0 .467.467h7.013a.468.468 0 0 0 .468-.467 1.87 1.87 0 1 1 3.74 0 .467.467 0 0 0 .467.467h1.4c.352 0 .283-.03 1.8-2.565.095-.158.066-.008.066-2.935.791-1.566.895-1.345-1.997-1.924zm-.126 6.489h-.709a2.805 2.805 0 0 0-5.532 0H7.446a2.808 2.808 0 0 0-5.521-.063 1.4 1.4 0 0 1-.986-1.34v-.935h.935a.468.468 0 0 0 0-.935H.939V6.427c4.955-1.488 4.274-1.275 4.4-1.335.187-.086.088.005 2.03-2.908A2.8 2.8 0 0 1 9.703.935h5.939a2.808 2.808 0 0 1 2.564 1.666c1.089 2.45 1.022 2.361 1.176 2.463.106.07 0 .036 1.9.417a1.357 1.357 0 0 0-.243 1.064h-.935a.468.468 0 0 0 0 .935h.935v1.273z"/>
        <path data-name="Path 881" d="M11.221 1.87c-1.356 0-2.449-.208-3.143.833-1.556 2.333-1.532 2.24-1.532 2.44 0 2.618-.025 2.639.06 2.8.157.293.861.495 1.419 1.617.179.362.361.26 3.2.26a.468.468 0 0 0 .468-.468V2.339a.468.468 0 0 0-.472-.469zm-.468 7.013H8.712a4.7 4.7 0 0 0-1.231-1.389v-2.21c1.883-2.825 1.316-2.479 3.272-2.479z"/>
        <path data-name="Path 882" d="M17.158 3.004a1.868 1.868 0 0 0-1.719-1.134h-2.348a.467.467 0 0 0-.467.467v6.247a.471.471 0 0 0 .658.425 4.251 4.251 0 0 1 3.082-1.529 5.43 5.43 0 0 1 1.4.243.49.49 0 0 0 .434-.3 10.035 10.035 0 0 0 .034-1.815c.002-.134.064.047-1.074-2.604zm-3.6 4.483V2.805h1.88a.934.934 0 0 1 .86.567c1.2 2.8 1 2.022 1 3.272a4.621 4.621 0 0 0-3.739.843z"/>
        </g>
      </symbol>

      <!-- painting -->
      <symbol id="painting" viewBox="0 0 12.322 18.447" xmlns="http://www.w3.org/2000/svg">
        <g data-name="Group 1421">
        <g data-name="Group 1409">
        <path data-name="Path 868" d="M5.782 8.53h3.444a.37.37 0 0 1 .37.369v2.616a.369.369 0 0 1-.37.369H5.782v-.738h3.075V9.268H5.782zm-3.445 0h3.445v.738H2.706v1.878h3.076v.738H2.341a.369.369 0 0 1-.369-.369V8.899a.369.369 0 0 1 .369-.369z" fill="currentColor"/>
        </g>
        <g data-name="Group 1410">
        <path data-name="Path 869" d="M2.706 8.248a.369.369 0 0 0-.738 0v3.924a.369.369 0 1 0 .738 0z" fill="currentColor"/>
        </g>
        <g data-name="Group 1411">
        <path data-name="Path 870" d="M.741 9.616a.369.369 0 0 0-.738 0v1.189a.369.369 0 0 0 .738 0z" fill="currentColor"/>
        </g>
        <g data-name="Group 1412">
        <path data-name="Path 871" d="M.369 9.841a.369.369 0 0 0 0 .738h1.972a.369.369 0 1 0 0-.738z" fill="currentColor"/>
        </g>
        <g data-name="Group 1413">
        <path data-name="Path 872" d="M4.588 8.541h.256l.219-.452h-.475v-.735h1.031a.376.376 0 0 1 .193.036.369.369 0 0 1 .17.493l-.564 1.161a.369.369 0 0 1-.344.232h-.485zm-.475 0h.475v.735H3.557a.376.376 0 0 1-.193-.036.369.369 0 0 1-.17-.493l.564-1.161a.371.371 0 0 1 .345-.232h.484v.735h-.256z" fill="currentColor"/>
        </g>
        <g data-name="Group 1414">
        <path data-name="Path 873" d="M6.27 10.274a.369.369 0 1 0-.73.106 8.646 8.646 0 0 1 .078 2.359 3.369 3.369 0 0 1-.732 1.779.368.368 0 1 0 .562.476 4.086 4.086 0 0 0 .9-2.16 9.358 9.358 0 0 0-.078-2.56z" fill="currentColor"/>
        </g>
        <g data-name="Group 1415">
        <path data-name="Path 874" d="M7.82 1.48l-1.912-.456V.265l2.433.581h.011a.368.368 0 0 1 .271.446L7.464 6.069a.37.37 0 0 1-.279.3l-1.276.308V5.92l.885-.214zm-1.912-.456L5.024.813 3.996 5.048l1.186 1.05.726-.175v.757l-.71.171a.34.34 0 0 1-.1.018h-.015a.37.37 0 0 1-.245-.093l-1.471-1.3a.37.37 0 0 1-.139-.384L4.388.314l.005-.028a.37.37 0 0 1 .445-.274l1.069.255z" fill="currentColor"/>
        </g>
        <g data-name="Group 1416">
        <path data-name="Path 875" d="M5.441 6.576a.369.369 0 0 0-.718-.17l-.241 1.009a.369.369 0 0 0 .718.171z" fill="currentColor"/>
        </g>
        <g data-name="Group 1417">
        <path data-name="Path 876" d="M7.682 11.159a.369.369 0 1 0 0 .738h1.232a4.471 4.471 0 0 0 1.335 2.354 3.679 3.679 0 0 1 1.248 3.458H9.803a.1.1 0 0 1-.072-.032.538.538 0 0 1-.115-.236.368.368 0 0 0-.712.188 1.252 1.252 0 0 0 .3.57.813.813 0 0 0 .594.248h1.976a.37.37 0 0 0 .363-.272l-.356-.1.354.1c.6-2.194-.393-3.328-1.337-4.407a3.505 3.505 0 0 1-1.174-2.239.369.369 0 0 0-.369-.369z" fill="currentColor"/>
        </g>
        <g data-name="Group 1418">
        <path data-name="Path 877" d="M8.875 17.548a.368.368 0 1 0 .715-.173.927.927 0 0 1 .045-.2 1.342 1.342 0 0 0 .045-.767 1.8 1.8 0 0 0-.429-.658 1.869 1.869 0 0 1-.419-.629 2.131 2.131 0 0 1 .005-.747 2.629 2.629 0 0 0-.018-1.027 2.4 2.4 0 0 0-.572-.912 1.468 1.468 0 0 1-.276-.375.136.136 0 0 1 0-.072.465.465 0 0 1 .062-.127.369.369 0 0 0-.62-.4 1.215 1.215 0 0 0-.151.332.859.859 0 0 0 0 .464 1.8 1.8 0 0 0 .429.658 1.869 1.869 0 0 1 .419.629 2.156 2.156 0 0 1-.005.747 2.648 2.648 0 0 0 .017 1.027 2.423 2.423 0 0 0 .572.912 1.5 1.5 0 0 1 .277.375.782.782 0 0 1-.046.375 1.079 1.079 0 0 0-.05.568z" fill="currentColor"/>
        </g>
        <g data-name="Group 1419">
        <path data-name="Path 878" d="M9.226 9.22a.369.369 0 0 0 0 .738h1.477a.369.369 0 0 0 0-.738z" fill="currentColor"/>
        </g>
        <g data-name="Group 1420">
        <path data-name="Path 879" d="M9.226 10.33a.369.369 0 0 0 0 .738h2.584a.369.369 0 0 0 0-.738z" fill="currentColor"/>
        </g>
        </g>
      </symbol>

      <!-- electronic -->
      <symbol id="electronic" viewBox="0 0 6.694 17.705" xmlns="http://www.w3.org/2000/svg">
        <g data-name="Group 1407">
        <g data-name="Group 1398">
        <path data-name="Path 859" d="M3.372 0a.365.365 0 0 1 .231.082 6.924 6.924 0 0 1 2.246 2.522 7.18 7.18 0 0 1 .819 3.343 7.262 7.262 0 0 1-.247 1.883 7.11 7.11 0 0 1-.727 1.743l-.319-.186.319.186a.37.37 0 0 1-.505.133.44.44 0 0 1-.051-.036 3.143 3.143 0 0 0-1.161-.49l.07-.362-.071.362a.369.369 0 0 1-.3-.368V7.191H3.37v-.738h.675a.369.369 0 0 1 .369.369v1.706a3.969 3.969 0 0 1 .467.165 3.907 3.907 0 0 1 .355.175 6.4 6.4 0 0 0 .471-1.228 6.531 6.531 0 0 0 .221-1.693 6.439 6.439 0 0 0-.732-3A6.219 6.219 0 0 0 3.37.82V.002zM1.044 9.563A7.076 7.076 0 0 1 .323 7.83a7.263 7.263 0 0 1-.248-1.883 7.179 7.179 0 0 1 .819-3.343A6.926 6.926 0 0 1 3.167.064l.2.3v.449A6.2 6.2 0 0 0 1.541 2.94a6.439 6.439 0 0 0-.732 3 6.531 6.531 0 0 0 .221 1.693 6.393 6.393 0 0 0 .47 1.228 3.808 3.808 0 0 1 .822-.34V6.815a.369.369 0 0 1 .369-.369h.676v.738H3.06v1.627a.369.369 0 0 1-.314.365 3.137 3.137 0 0 0-.6.188 3.188 3.188 0 0 0-.57.317.368.368 0 0 1-.514-.091.262.262 0 0 1-.022-.035zM3.372.369V0a.367.367 0 0 0-.206.063z" fill="currentColor"/>
        </g>
        <g data-name="Group 1399">
        <path data-name="Path 860" d="M3.372 6.554h.675a.37.37 0 0 1 .369.37v4.5a.369.369 0 0 1-.369.369h-.675v-.738h.306V7.29h-.306zm-.676 0h.676v.739h-.307v3.765h.307v.738h-.676a.369.369 0 0 1-.369-.369v-4.5a.37.37 0 0 1 .369-.373z" fill="currentColor"/>
        </g>
        <g data-name="Group 1400">
        <path data-name="Path 861" d="M3.558 4.865a.185.185 0 1 0-.369 0v2.059a.185.185 0 0 0 .369 0z" fill="currentColor"/>
        </g>
        <g data-name="Group 1401">
        <path data-name="Path 862" d="M2.668 4.496a.369.369 0 1 0 0 .738h1.407a.369.369 0 1 0 0-.738z" fill="currentColor"/>
        </g>
        <g data-name="Group 1402">
        <path data-name="Path 863" d="M.369 12.166a.369.369 0 0 0 0 .738h5.955a.369.369 0 1 0 0-.738z" fill="currentColor"/>
        </g>
        <g data-name="Group 1403">
        <path data-name="Path 864" d="M2.977 17.336a.37.37 0 0 0 .739 0V13.88a.37.37 0 0 0-.739 0z" fill="currentColor"/>
        </g>
        <g data-name="Group 1404">
        <path data-name="Path 865" d="M1.828 17.336a.369.369 0 1 0 .738 0V13.88a.369.369 0 0 0-.738 0z" fill="currentColor"/>
        </g>
        <g data-name="Group 1405">
        <path data-name="Path 866" d="M4.042 17.336a.369.369 0 1 0 .738 0V13.88a.369.369 0 0 0-.738 0z" fill="currentColor"/>
        </g>
        <g data-name="Group 1406">
        <path data-name="Path 867" d="M3.372 13.281h1.886v-1.485H3.375v-.738h2.252a.369.369 0 0 1 .369.369v2.223a.37.37 0 0 1-.369.37H3.375zm-1.883-1.485v1.485h1.883v.739H1.12a.37.37 0 0 1-.369-.37v-2.223a.369.369 0 0 1 .369-.369h2.252v.738z" fill="currentColor"/>
        </g>
        </g>
      </symbol>

      <!-- assembly -->
      <symbol id="assembly" viewBox="0 0 20.583 10.302" xmlns="http://www.w3.org/2000/svg">
        <g data-name="Group 1428">
        <g data-name="Group 1425" fill="currentColor">
        <path data-name="Path 883" d="M20.452 4.858c-1.086-1.086-.51-.267-2.684-4.179a1.287 1.287 0 0 0-1.124-.662h-4.211a1.288 1.288 0 0 0-1.286 1.286v7.716a1.287 1.287 0 0 0 1.286 1.286h5.144a.428.428 0 0 0 .429-.428 2.146 2.146 0 0 1 2.143-2.144.428.428 0 0 0 .429-.428c0-2.359.042-2.282-.126-2.447zM12.433.875c4.454 0 4.415-.087 4.586.22l1.544 2.78h-6.559V1.303a.429.429 0 0 1 .429-.431zm4.75 8.573h-4.75a.43.43 0 0 1-.429-.429V4.733h7.11l.606.606V6.91a3 3 0 0 0-2.537 2.535z"/>
        <path data-name="Path 884" d="M18.434 5.587h-.857a.428.428 0 0 0 0 .857h.857a.428.428 0 0 0 0-.857z"/>
        </g>
        <g data-name="Group 1426" fill="currentColor">
        <path data-name="Path 885" d="M9.004.014c-4.7 0-4.768-.125-5.27.377C-.187 4.312.082 4.023.034 4.136S.001 4.027.001 7.302a.428.428 0 0 0 .428.428 2.147 2.147 0 0 1 2.144 2.144.428.428 0 0 0 .428.428h6a1.287 1.287 0 0 0 1.286-1.286V1.3A1.287 1.287 0 0 0 9.004.014zM4.34.997C4.524.814 4.284.872 9.004.872a.428.428 0 0 1 .428.428v2.572H1.465zm4.664 8.448H3.397A3 3 0 0 0 .859 6.907V4.73h8.573v3H4.288a.429.429 0 0 0 0 .858h5.144v.428a.429.429 0 0 1-.428.429z"/>
        <path data-name="Path 886" d="M7.289 6.444h.857a.428.428 0 0 0 0-.857h-.857a.428.428 0 0 0 0 .857z"/>
        </g>
        <g data-name="Group 1427">
        <path data-name="Path 887" d="M16.291 8.588h-4.715a.429.429 0 0 1 0-.858h4.715a.429.429 0 0 1 0 .858z" fill="currentColor"/>
        </g>
        </g>
      </symbol>

      <!-- interior -->
      <symbol id="interior" viewBox="0 0 17.675 13.629" xmlns="http://www.w3.org/2000/svg">
        <path data-name="Path 888" d="M17.31 12.892c-.349 0-.273.033-.24-.1.351-1.406.6-1.869.167-2.422a1.1 1.1 0 0 0-.446-.335 1.815 1.815 0 0 0 .448-1.278L17.005 3.6a1.834 1.834 0 0 0-1.619-1.737 7.724 7.724 0 0 0-.234-1.271.739.739 0 0 0-.723-.592h-2.343a.737.737 0 0 0-.722.592 7.494 7.494 0 0 0-.235 1.271A1.834 1.834 0 0 0 9.511 3.6l-.235 5.157a1.819 1.819 0 0 0 .448 1.278 1.094 1.094 0 0 0-.647 1.283c.426 1.7.359 1.449.4 1.574-1.507 0-1.286.043-1.251-.1.352-1.406.6-1.869.168-2.422a1.1 1.1 0 0 0-.446-.335 1.819 1.819 0 0 0 .448-1.278L8.162 3.6a1.835 1.835 0 0 0-1.619-1.737A7.886 7.886 0 0 0 6.308.592.738.738 0 0 0 5.586 0H3.243a.737.737 0 0 0-.722.592 7.494 7.494 0 0 0-.235 1.271A1.835 1.835 0 0 0 .667 3.6L.433 8.757a1.815 1.815 0 0 0 .448 1.278 1.094 1.094 0 0 0-.647 1.283c.426 1.7.358 1.449.4 1.574H.36a.369.369 0 0 0 0 .737h16.944a.369.369 0 0 0 .006-.737zm-5.526-2.947c0-7.959-.044-7.367.081-7.367h2.866v7.367zm4.485-6.312c.255 5.622.366 5.514-.071 5.971a1.093 1.093 0 0 1-.73.335V2.621a1.1 1.1 0 0 1 .801 1.012zm-4.183-2.9h2.343l.222 1.1h-2.786zm-1.839 2.9a1.1 1.1 0 0 1 .8-1.008v7.314a1.1 1.1 0 0 1-1.036-1.149zm-7.3 6.312c0-7.959-.044-7.367.081-7.367h2.866v7.367zm4.485-6.312c.255 5.622.366 5.514-.071 5.971a1.093 1.093 0 0 1-.73.335V2.621a1.1 1.1 0 0 1 .798 1.012zM3.249.733h2.343l.222 1.1H3.028zm-1.84 2.9a1.1 1.1 0 0 1 .8-1.008v7.314A1.1 1.1 0 0 1 1.174 8.79zm.271 9.259a.368.368 0 0 1-.357-.279L.955 11.14a.369.369 0 0 1 .357-.458h5.25c1.615 0 1.491-.209.956 1.931a.368.368 0 0 1-.358.279zm8.841 0a.368.368 0 0 1-.358-.279l-.368-1.473a.369.369 0 0 1 .357-.458h5.25c1.616 0 1.491-.209.956 1.931a.368.368 0 0 1-.357.279z" fill="currentColor"/>
      </symbol>

      <!-- arrow left -->
      <symbol id="arrow-left" viewBox="0 0 1281.667 2879.558" xmlns="http://www.w3.org/2000/svg">
        <g data-name="Mask Group 1" transform="translate(.833 -120.442)" clip-path="url(#a)">
        <path d="M1280.833 517.188l-121.411-121.011L-.834 1560.221l1160.256 1164.045 121.411-121.011L241.2 1560.221z" fill="currentColor"/>
        </g>
      </symbol>

      <!-- arrow right -->
      <symbol id="arrow-right" viewBox="0 0 1281.667 2879.558" xmlns="http://www.w3.org/2000/svg">
        <g data-name="Mask Group 1" transform="rotate(180 640.416 1500)" clip-path="url(#a)">
        <path d="M1280.833 517.188l-121.411-121.011L-.834 1560.221l1160.256 1164.045 121.411-121.011L241.2 1560.221z" fill="currentcolor"/>
        </g>
      </symbol>
</svg>
 
