<svg width="128" height="44" viewBox="0 0 128 44" fill="none" xmlns="http://www.w3.org/2000/svg">
<path d="M0.612464 37.9866H3.38242L3.32556 38.4699H1.03893L0.8196 40.2732H2.74477L2.68791 40.7565H0.762739L0.486558 43.0432H0.00323486L0.612464 37.9866Z" fill="#2A5F9E"/>
<path d="M9.2466 42.5586L9.18974 43.042H6.54163L7.15491 37.9854H7.63824L7.0818 42.5586H9.2466Z" fill="#2A5F9E"/>
<path d="M17.0653 38.2739C17.4349 38.5054 17.7111 38.8222 17.8939 39.2161C18.0807 39.6142 18.1416 40.0447 18.0848 40.5118C18.0279 40.9788 17.8573 41.4094 17.5771 41.8074C17.2968 42.2054 16.9435 42.5182 16.517 42.7497C16.0905 42.9812 15.6478 43.099 15.1808 43.099C14.7137 43.099 14.2953 42.9812 13.9298 42.7497C13.5602 42.5182 13.284 42.2014 13.1013 41.8074C12.9144 41.4094 12.8535 40.9788 12.9104 40.5118C12.9672 40.0447 13.1378 39.6142 13.4181 39.2161C13.6983 38.8181 14.0517 38.5054 14.4781 38.2739C14.9046 38.0423 15.3473 37.9246 15.8144 37.9246C16.2814 37.9246 16.6998 38.0423 17.0653 38.2739ZM16.3383 42.3394C16.6835 42.1526 16.9678 41.8967 17.1953 41.5759C17.4227 41.255 17.5608 40.9017 17.6055 40.5158C17.6542 40.13 17.6014 39.7766 17.4512 39.4558C17.3009 39.1349 17.0775 38.879 16.781 38.6922C16.4845 38.5054 16.1393 38.4119 15.7534 38.4119C15.3676 38.4119 15.0021 38.5054 14.6568 38.6922C14.3116 38.879 14.0273 39.1349 13.7998 39.4558C13.5724 39.7766 13.4343 40.13 13.3896 40.5158C13.3409 40.9017 13.3937 41.255 13.544 41.5759C13.6942 41.8967 13.9176 42.1526 14.2141 42.3394C14.5106 42.5263 14.8558 42.6197 15.2417 42.6197C15.6316 42.6197 15.9931 42.5263 16.3383 42.3394Z" fill="#2A5F9E"/>
<path d="M28.4293 37.9854L25.6918 43.1598L24.7861 39.2201L22.9219 43.1598L21.4435 37.9854H21.9837L23.064 41.8357L24.9445 37.8635L25.8624 41.8357L27.881 37.9854H28.4293Z" fill="#2A5F9E"/>
<path d="M37.7863 38.4688L37.567 40.2721H39.4921L39.4353 40.7554H37.5101L37.2908 42.5628H39.5774L39.5206 43.0461H36.7506L37.3639 37.9895H40.1339L40.077 38.4728H37.7863V38.4688Z" fill="#2A5F9E"/>
<path d="M48.2939 41.4742C48.1314 41.7788 47.9243 42.0509 47.6766 42.2905L48.2939 43.0419H47.6319L47.2866 42.6073C47.047 42.7698 46.7911 42.8917 46.5231 42.9769C46.255 43.0622 45.9788 43.1029 45.6986 43.1029C45.2315 43.1029 44.8132 42.9851 44.4476 42.7536C44.078 42.5221 43.8019 42.2053 43.6191 41.8113C43.4323 41.4133 43.3713 40.9827 43.4282 40.5157C43.4851 40.0486 43.6556 39.6181 43.9359 39.22C44.2161 38.822 44.5695 38.5093 44.9959 38.2778C45.4224 38.0463 45.8651 37.9285 46.3322 37.9285C46.7993 37.9285 47.2176 38.0463 47.5831 38.2778C47.9527 38.5093 48.2289 38.8261 48.4117 39.22C48.5985 39.6181 48.6594 40.0486 48.6026 40.5157C48.5579 40.8487 48.4564 41.1696 48.2939 41.4742ZM47.0023 42.2418L46.1169 41.1127H46.718L47.3922 41.9413C47.5913 41.7504 47.7537 41.531 47.8796 41.2873C48.0055 41.0437 48.0827 40.7837 48.1152 40.5116C48.1639 40.1258 48.1111 39.7724 47.9609 39.4515C47.8106 39.1307 47.5872 38.8748 47.2907 38.688C46.9942 38.5011 46.649 38.4077 46.2631 38.4077C45.8773 38.4077 45.5118 38.5011 45.1665 38.688C44.8213 38.8748 44.537 39.1307 44.3095 39.4515C44.0821 39.7724 43.944 40.1258 43.8993 40.5116C43.8506 40.8974 43.9034 41.2508 44.0537 41.5717C44.2039 41.8925 44.4273 42.1484 44.7238 42.3352C45.0203 42.5221 45.3655 42.6155 45.7514 42.6155C46.2063 42.6195 46.6206 42.4936 47.0023 42.2418Z" fill="#2A5F9E"/>
<path d="M56.1129 37.9854L55.7555 40.934C55.6702 41.6245 55.4468 42.1606 55.0853 42.5343C54.7239 42.912 54.2568 43.0988 53.6841 43.0988C53.0993 43.0988 52.6728 42.912 52.4088 42.5383C52.1448 42.1647 52.0554 41.6285 52.1407 40.934L52.4981 37.9854H52.9815L52.6159 40.9949C52.5509 41.527 52.62 41.9291 52.819 42.2053C53.018 42.4815 53.3267 42.6196 53.741 42.6196C54.1553 42.6196 54.5005 42.4815 54.7645 42.2053C55.0325 41.9291 55.195 41.527 55.26 40.9949L55.6255 37.9854H56.1129Z" fill="#2A5F9E"/>
<path d="M59.3961 43.042L60.0094 37.9854H60.4927L59.8794 43.042H59.3961Z" fill="#2A5F9E"/>
<path d="M67.3422 38.4077C67.6306 38.6879 67.7402 39.0778 67.6834 39.5733C67.6468 39.8901 67.5453 40.1744 67.3787 40.4262C67.2163 40.6781 66.997 40.8771 66.7248 41.0192C66.4527 41.1614 66.144 41.2345 65.7948 41.2345H64.5925L64.3732 43.0378H63.8899L64.5032 37.9812H65.9491C66.5908 37.9853 67.0538 38.1274 67.3422 38.4077ZM66.7573 40.479C67.001 40.2963 67.1513 40.0079 67.196 39.618C67.2447 39.2281 67.1594 38.9357 66.9482 38.7488C66.737 38.562 66.4527 38.4686 66.0953 38.4686H64.9296L64.6535 40.7552H65.8557C66.209 40.7552 66.5096 40.6618 66.7573 40.479Z" fill="#2A5F9E"/>
<path d="M72.3034 39.4435L71.2962 43.0379H70.8007L72.2872 37.8635L73.7412 42.1078L76.2269 37.8635L76.4543 43.0379H75.9588L75.8248 39.4435L73.6112 43.1598L72.3034 39.4435Z" fill="#2A5F9E"/>
<path d="M81.2666 38.4688L81.0473 40.2721H82.9725L82.9156 40.7554H80.9905L80.7711 42.5628H83.0578L83.0009 43.0461H80.231L80.8442 37.9895H83.6142L83.5573 38.4728H81.2666V38.4688Z" fill="#2A5F9E"/>
<path d="M87.8502 39.1306L87.375 43.0418H86.8917L87.5213 37.8674L90.5227 41.9005L90.9979 37.9893H91.4812L90.8517 43.1637L87.8502 39.1306Z" fill="#2A5F9E"/>
<path d="M98.3845 37.9854L98.3276 38.4687H97.0036L96.4471 43.042H95.9638L96.5202 38.4687H95.1962L95.253 37.9854H98.3845Z" fill="#2A5F9E"/>
<path d="M104.525 40.4954C104.757 40.6172 104.915 40.7756 105.001 40.9665C105.086 41.1574 105.114 41.397 105.078 41.6813C105.045 41.9331 104.944 42.1646 104.761 42.384C104.582 42.6033 104.347 42.7779 104.058 42.9079C103.77 43.0379 103.453 43.1029 103.112 43.1029C102.771 43.1029 102.478 43.0501 102.231 42.9404C101.983 42.8307 101.792 42.717 101.662 42.5952C101.532 42.4733 101.443 42.3677 101.39 42.2824L101.682 41.8519C101.825 42.0793 102.024 42.2621 102.275 42.4043C102.527 42.5464 102.832 42.6195 103.181 42.6195C103.413 42.6195 103.632 42.5789 103.839 42.4936C104.046 42.4083 104.221 42.2905 104.355 42.1403C104.489 41.99 104.57 41.8275 104.59 41.6529C104.619 41.4051 104.55 41.2021 104.379 41.0396C104.209 40.8771 103.896 40.7512 103.441 40.6659C103.011 40.5847 102.682 40.4832 102.454 40.3532C102.227 40.2273 102.076 40.073 102.003 39.8983C101.93 39.7237 101.906 39.5165 101.934 39.2728C101.967 39.021 102.06 38.7936 102.223 38.5905C102.385 38.3874 102.6 38.225 102.872 38.1072C103.145 37.9853 103.445 37.9285 103.782 37.9285C103.993 37.9285 104.229 37.9691 104.493 38.0462C104.757 38.1234 104.997 38.2859 105.212 38.5296L104.936 38.9438C104.814 38.7936 104.647 38.6677 104.436 38.5621C104.225 38.4605 103.985 38.4077 103.713 38.4077C103.372 38.4077 103.08 38.4808 102.832 38.6311C102.584 38.7773 102.446 38.9845 102.413 39.2444C102.381 39.5003 102.454 39.6993 102.629 39.8374C102.803 39.9795 103.112 40.0933 103.547 40.1826C103.973 40.2679 104.294 40.3735 104.525 40.4954Z" fill="#2A5F9E"/>
<path d="M116.034 27.8396L111.331 33.0912C110.815 33.6639 109.933 33.7126 109.361 33.2009L99.9705 24.7935C98.2322 23.2379 98.086 20.5695 99.6415 18.8312C101.197 17.0928 103.866 16.9466 105.604 18.5022L116.034 27.8396Z" fill="#2A5F9E"/>
<path opacity="0.6" d="M115.916 27.6934L111.213 32.945C110.697 33.5176 109.816 33.5664 109.243 33.0546L99.8527 24.6473C98.1143 23.0917 97.9681 20.4233 99.5237 18.6849C101.079 16.9466 103.748 16.8004 105.486 18.356L115.916 27.6934Z" fill="url(#paint0_linear)"/>
<path d="M25.6201 0.0495605H3.22485L0 33.4313H7.35543L8.61044 20.4181H22.5212L23.1791 13.6272H9.26841L9.92637 6.84044H24.9662L25.6201 0.0495605Z" fill="#2A5F9E"/>
<path d="M49.0177 26.6374H36.5447C36.2279 26.6374 35.9924 26.3815 36.0248 26.0606L38.4821 0.619217C38.5146 0.302418 38.279 0.0424805 37.9622 0.0424805H31.7602C31.4434 0.0424805 31.1591 0.298356 31.1307 0.619217L28.0155 32.8515C27.983 33.1683 28.2186 33.4283 28.5354 33.4283H48.3638C48.6806 33.4283 48.9649 33.1724 48.9933 32.8515L49.5376 27.2141C49.5701 26.8973 49.3385 26.6374 49.0177 26.6374Z" fill="#2A5F9E"/>
<path d="M78.606 0.0463867H57.0799C56.7631 0.0463867 56.4788 0.302262 56.4503 0.623123L53.3352 32.8554C53.3027 33.1722 53.5382 33.4322 53.855 33.4322H76.23C76.5468 33.4322 76.8311 33.1763 76.8595 32.8554L77.4038 27.218C77.4363 26.9012 77.2007 26.6413 76.8839 26.6413H61.8644C61.5476 26.6413 61.312 26.3854 61.3445 26.0645L61.8887 20.4271C61.9212 20.1103 62.2015 19.8504 62.5183 19.8504H75.8401C76.1569 19.8504 76.4412 19.5945 76.4696 19.2737L77.0139 13.6363C77.0464 13.3195 76.8108 13.0595 76.494 13.0595H63.1722C62.8554 13.0595 62.6198 12.8036 62.6523 12.4828L63.1437 7.40994C63.1762 7.09314 63.4565 6.8332 63.7733 6.8332H77.944C78.2608 6.8332 78.5451 6.57733 78.5735 6.25647L79.1177 0.619061C79.1543 0.302261 78.9228 0.0463867 78.606 0.0463867Z" fill="#2A5F9E"/>
<path d="M127.95 17.9537L127.564 20.4393C127.475 21.0323 127.325 22.003 127.231 22.596L126.845 25.0816C126.752 25.6746 126.366 25.8777 125.98 25.5284L125.469 25.0654L120.197 30.7678C113.43 37.7577 108.739 32.6645 108.739 32.6645L103.829 28.2415C105.1 29.2772 109.409 31.9375 114.904 25.9995L120.176 20.3012L119.579 19.7651C119.193 19.4199 119.364 19.0178 119.953 18.8756L122.426 18.2705C123.015 18.1283 123.982 17.8887 124.571 17.7465L127.044 17.1413C127.633 16.9951 128.044 17.3607 127.95 17.9537Z" fill="#CF342E"/>
<path d="M127.987 17.9822L127.601 20.4719C127.508 21.0649 127.358 22.0356 127.268 22.6326L126.882 25.1223C126.789 25.7153 126.399 25.9184 126.017 25.5732L125.583 25.1792C125.538 25.1426 125.469 25.1467 125.428 25.1954L120.225 30.8247C113.451 37.8268 108.752 32.7255 108.752 32.7255L103.833 28.2944C105.104 29.3301 109.426 31.9944 114.925 26.0484L120.128 20.4231C120.173 20.3785 120.173 20.3094 120.128 20.2688L119.608 19.8017C119.222 19.4565 119.393 19.0544 119.982 18.9082L122.459 18.303C123.048 18.1609 124.019 17.9212 124.608 17.7791L127.085 17.1739C127.67 17.0236 128.08 17.3892 127.987 17.9822Z" fill="#FD963D"/>
<path d="M89.26 20.017C88.1918 14.6111 91.8269 8.94121 97.3871 7.3491C102.943 5.75698 108.313 8.8478 109.385 14.2496C109.73 15.9961 109.584 17.7669 109.04 19.424C108.918 19.7936 109.027 20.1998 109.316 20.4638L112.987 23.8145C113.479 24.2654 114.259 24.107 114.559 23.5099C116.277 20.0657 116.939 16.1464 116.18 12.3082C114.389 3.25914 105.388 -1.91931 96.0834 0.74911C86.7744 3.41753 80.6821 12.9134 82.4732 21.9665C84.2643 31.0156 93.2647 36.1941 102.574 33.5257C103.199 33.3469 103.808 33.1357 104.401 32.9002C105.08 32.6281 105.238 31.7345 104.698 31.239L100.592 27.4902C100.368 27.2831 100.064 27.2018 99.7591 27.2425C94.7593 27.9289 90.2348 24.9274 89.26 20.017Z" fill="#2A5F9E"/>
<defs>
<linearGradient id="paint0_linear" x1="104.078" y1="18.6387" x2="111.061" y2="33.1378" gradientUnits="userSpaceOnUse">
<stop offset="0.3273" stop-color="#367ABC" stop-opacity="0"/>
<stop offset="0.7758" stop-color="#133351"/>
</linearGradient>
</defs>
</svg>
